<svg xmlns="http://www.w3.org/2000/svg" xmlns:xlink="http://www.w3.org/1999/xlink" xmlns:lucid="lucid" width="1700" height="1070"><g transform="translate(-60 -80)" lucid:page-tab-id="fwQcDkAJnwES"><path d="M0 0h4807.77v3317.4H0z" fill="#fff"/><path d="M80 408a8 8 0 0 1 8-8h364a8 8 0 0 1 8 8v269a8 8 0 0 1-8 8H88a8 8 0 0 1-8-8z" stroke="#333" fill="#fff"/><path d="M80 437.6h380M80 604.7h380" stroke="#333" fill="none"/><use xlink:href="#a" transform="matrix(1,0,0,1,88,408) translate(148.025 14.6)"/><use xlink:href="#b" transform="matrix(1,0,0,1,92,445.6) translate(148.8 25.6)"/><use xlink:href="#c" transform="matrix(1,0,0,1,92,445.6) translate(164.3 25.6)"/><use xlink:href="#d" transform="matrix(1,0,0,1,92,445.6) translate(188.25 25.6)"/><use xlink:href="#b" transform="matrix(1,0,0,1,92,445.6) translate(119.325 47.2)"/><use xlink:href="#e" transform="matrix(1,0,0,1,92,445.6) translate(134.825 47.2)"/><use xlink:href="#f" transform="matrix(1,0,0,1,92,445.6) translate(189.775 47.2)"/><use xlink:href="#b" transform="matrix(1,0,0,1,92,445.6) translate(124.8 68.80000000000001)"/><use xlink:href="#g" transform="matrix(1,0,0,1,92,445.6) translate(140.3 68.80000000000001)"/><use xlink:href="#f" transform="matrix(1,0,0,1,92,445.6) translate(184.3 68.80000000000001)"/><use xlink:href="#b" transform="matrix(1,0,0,1,92,445.6) translate(100.875 90.40000000000002)"/><use xlink:href="#h" transform="matrix(1,0,0,1,92,445.6) translate(116.375 90.40000000000002)"/><use xlink:href="#f" transform="matrix(1,0,0,1,92,445.6) translate(208.225 90.40000000000002)"/><use xlink:href="#b" transform="matrix(1,0,0,1,92,445.6) translate(108.82499999999999 112.00000000000001)"/><use xlink:href="#e" transform="matrix(1,0,0,1,92,445.6) translate(124.32499999999999 112.00000000000001)"/><use xlink:href="#i" transform="matrix(1,0,0,1,92,445.6) translate(179.27499999999998 112.00000000000001)"/><use xlink:href="#b" transform="matrix(1,0,0,1,92,445.6) translate(131.85 133.6)"/><use xlink:href="#j" transform="matrix(1,0,0,1,92,445.6) translate(147.35 133.6)"/><use xlink:href="#k" transform="matrix(1,0,0,1,92,445.6) translate(177.25 133.6)"/><use xlink:href="#b" transform="matrix(1,0,0,1,92,612.7) translate(3.9750000000000227 25.299999999999997)"/><use xlink:href="#l" transform="matrix(1,0,0,1,92,612.7) translate(19.475000000000023 25.299999999999997)"/><use xlink:href="#m" transform="matrix(1,0,0,1,92,612.7) translate(274.625 25.299999999999997)"/><use xlink:href="#n" transform="matrix(1,0,0,1,92,612.7) translate(119.57499999999999 46.9)"/><use xlink:href="#o" transform="matrix(1,0,0,1,92,612.7) translate(168.475 46.9)"/><path d="M740 108a8 8 0 0 1 8-8h404a8 8 0 0 1 8 8v356a8 8 0 0 1-8 8H748a8 8 0 0 1-8-8z" stroke="#333" fill="#fff"/><path d="M740 137.6h420M740 391.1h420" stroke="#333" fill="none"/><use xlink:href="#p" transform="matrix(1,0,0,1,748,108) translate(162.575 14.6)"/><use xlink:href="#b" transform="matrix(1,0,0,1,752,145.6) translate(168.8 25.400000000000013)"/><use xlink:href="#c" transform="matrix(1,0,0,1,752,145.6) translate(184.3 25.400000000000013)"/><use xlink:href="#d" transform="matrix(1,0,0,1,752,145.6) translate(208.25 25.400000000000013)"/><use xlink:href="#b" transform="matrix(1,0,0,1,752,145.6) translate(139.325 47.000000000000014)"/><use xlink:href="#e" transform="matrix(1,0,0,1,752,145.6) translate(154.825 47.000000000000014)"/><use xlink:href="#f" transform="matrix(1,0,0,1,752,145.6) translate(209.77499999999998 47.000000000000014)"/><use xlink:href="#b" transform="matrix(1,0,0,1,752,145.6) translate(137.8 68.60000000000002)"/><use xlink:href="#q" transform="matrix(1,0,0,1,752,145.6) translate(153.3 68.60000000000002)"/><use xlink:href="#f" transform="matrix(1,0,0,1,752,145.6) translate(211.3 68.60000000000002)"/><use xlink:href="#b" transform="matrix(1,0,0,1,752,145.6) translate(131.325 90.20000000000003)"/><use xlink:href="#r" transform="matrix(1,0,0,1,752,145.6) translate(146.825 90.20000000000003)"/><use xlink:href="#f" transform="matrix(1,0,0,1,752,145.6) translate(217.77499999999998 90.20000000000003)"/><use xlink:href="#b" transform="matrix(1,0,0,1,752,145.6) translate(144.8 111.80000000000003)"/><use xlink:href="#g" transform="matrix(1,0,0,1,752,145.6) translate(160.3 111.80000000000003)"/><use xlink:href="#f" transform="matrix(1,0,0,1,752,145.6) translate(204.3 111.80000000000003)"/><use xlink:href="#b" transform="matrix(1,0,0,1,752,145.6) translate(133.825 133.4)"/><use xlink:href="#s" transform="matrix(1,0,0,1,752,145.6) translate(149.325 133.4)"/><use xlink:href="#f" transform="matrix(1,0,0,1,752,145.6) translate(215.27499999999998 133.4)"/><use xlink:href="#b" transform="matrix(1,0,0,1,752,145.6) translate(89.925 155.00000000000003)"/><use xlink:href="#t" transform="matrix(1,0,0,1,752,145.6) translate(105.425 155.00000000000003)"/><use xlink:href="#u" transform="matrix(1,0,0,1,752,145.6) translate(159.27499999999998 155.00000000000003)"/><use xlink:href="#b" transform="matrix(1,0,0,1,752,145.6) translate(80.89999999999999 176.6)"/><use xlink:href="#v" transform="matrix(1,0,0,1,752,145.6) translate(96.39999999999999 176.6)"/><use xlink:href="#u" transform="matrix(1,0,0,1,752,145.6) translate(168.3 176.6)"/><use xlink:href="#b" transform="matrix(1,0,0,1,752,145.6) translate(137.35 198.20000000000002)"/><use xlink:href="#w" transform="matrix(1,0,0,1,752,145.6) translate(152.85 198.20000000000002)"/><use xlink:href="#f" transform="matrix(1,0,0,1,752,145.6) translate(211.75 198.20000000000002)"/><use xlink:href="#b" transform="matrix(1,0,0,1,752,145.6) translate(151.85 219.79999999999998)"/><use xlink:href="#j" transform="matrix(1,0,0,1,752,145.6) translate(167.35 219.79999999999998)"/><use xlink:href="#k" transform="matrix(1,0,0,1,752,145.6) translate(197.25 219.79999999999998)"/><g><use xlink:href="#b" transform="matrix(1,0,0,1,752,399.09999999999997) translate(19.025000000000034 25.299999999999997)"/><use xlink:href="#x" transform="matrix(1,0,0,1,752,399.09999999999997) translate(34.525000000000034 25.299999999999997)"/><use xlink:href="#m" transform="matrix(1,0,0,1,752,399.09999999999997) translate(299.575 25.299999999999997)"/><use xlink:href="#n" transform="matrix(1,0,0,1,752,399.09999999999997) translate(134.125 46.9)"/><use xlink:href="#y" transform="matrix(1,0,0,1,752,399.09999999999997) translate(183.025 46.9)"/></g><path d="M1280 188a8 8 0 0 1 8-8h444a8 8 0 0 1 8 8v183a8 8 0 0 1-8 8h-444a8 8 0 0 1-8-8z" stroke="#333" fill="#fff"/><path d="M1280 217.6h460m-460 80.7h460" stroke="#333" fill="none"/><g><use xlink:href="#z" transform="matrix(1,0,0,1,1288,188) translate(148.6 14.6)"/></g><g><use xlink:href="#b" transform="matrix(1,0,0,1,1292,225.6) translate(159.325 25.299999999999997)"/><use xlink:href="#e" transform="matrix(1,0,0,1,1292,225.6) translate(174.825 25.299999999999997)"/><use xlink:href="#f" transform="matrix(1,0,0,1,1292,225.6) translate(229.77499999999998 25.299999999999997)"/><use xlink:href="#b" transform="matrix(1,0,0,1,1292,225.6) translate(171.85 46.9)"/><use xlink:href="#j" transform="matrix(1,0,0,1,1292,225.6) translate(187.35 46.9)"/><use xlink:href="#k" transform="matrix(1,0,0,1,1292,225.6) translate(217.25 46.9)"/></g><g><use xlink:href="#b" transform="matrix(1,0,0,1,1292,306.3) translate(4.550000000000011 25.299999999999997)"/><use xlink:href="#A" transform="matrix(1,0,0,1,1292,306.3) translate(20.05000000000001 25.299999999999997)"/><use xlink:href="#m" transform="matrix(1,0,0,1,1292,306.3) translate(354.04999999999995 25.299999999999997)"/><use xlink:href="#n" transform="matrix(1,0,0,1,1292,306.3) translate(120.14999999999999 46.9)"/><use xlink:href="#B" transform="matrix(1,0,0,1,1292,306.3) translate(169.05 46.9)"/></g><path d="M80 788a8 8 0 0 1 8-8h364a8 8 0 0 1 8 8v334a8 8 0 0 1-8 8H88a8 8 0 0 1-8-8z" stroke="#333" fill="#fff"/><path d="M80 817.6h380M80 1049.5h380" stroke="#333" fill="none"/><g><use xlink:href="#C" transform="matrix(1,0,0,1,88,788) translate(149.525 14.6)"/></g><g><use xlink:href="#b" transform="matrix(1,0,0,1,92,825.6) translate(148.8 25.20000000000001)"/><use xlink:href="#c" transform="matrix(1,0,0,1,92,825.6) translate(164.3 25.20000000000001)"/><use xlink:href="#d" transform="matrix(1,0,0,1,92,825.6) translate(188.25 25.20000000000001)"/><use xlink:href="#b" transform="matrix(1,0,0,1,92,825.6) translate(119.325 46.80000000000001)"/><use xlink:href="#e" transform="matrix(1,0,0,1,92,825.6) translate(134.825 46.80000000000001)"/><use xlink:href="#f" transform="matrix(1,0,0,1,92,825.6) translate(189.775 46.80000000000001)"/><use xlink:href="#b" transform="matrix(1,0,0,1,92,825.6) translate(112.875 68.40000000000002)"/><use xlink:href="#D" transform="matrix(1,0,0,1,92,825.6) translate(128.375 68.40000000000002)"/><use xlink:href="#f" transform="matrix(1,0,0,1,92,825.6) translate(196.225 68.40000000000002)"/><use xlink:href="#b" transform="matrix(1,0,0,1,92,825.6) translate(110.325 90.00000000000003)"/><use xlink:href="#E" transform="matrix(1,0,0,1,92,825.6) translate(125.825 90.00000000000003)"/><use xlink:href="#f" transform="matrix(1,0,0,1,92,825.6) translate(198.775 90.00000000000003)"/><use xlink:href="#b" transform="matrix(1,0,0,1,92,825.6) translate(89.35 111.60000000000002)"/><use xlink:href="#F" transform="matrix(1,0,0,1,92,825.6) translate(104.85 111.60000000000002)"/><use xlink:href="#i" transform="matrix(1,0,0,1,92,825.6) translate(198.75 111.60000000000002)"/><use xlink:href="#b" transform="matrix(1,0,0,1,92,825.6) translate(106.375 133.20000000000002)"/><use xlink:href="#G" transform="matrix(1,0,0,1,92,825.6) translate(121.875 133.20000000000002)"/><use xlink:href="#f" transform="matrix(1,0,0,1,92,825.6) translate(202.72500000000002 133.20000000000002)"/><use xlink:href="#b" transform="matrix(1,0,0,1,92,825.6) translate(100.875 154.8)"/><use xlink:href="#h" transform="matrix(1,0,0,1,92,825.6) translate(116.375 154.8)"/><use xlink:href="#f" transform="matrix(1,0,0,1,92,825.6) translate(208.225 154.8)"/><use xlink:href="#b" transform="matrix(1,0,0,1,92,825.6) translate(110.375 176.4)"/><use xlink:href="#H" transform="matrix(1,0,0,1,92,825.6) translate(125.875 176.4)"/><use xlink:href="#f" transform="matrix(1,0,0,1,92,825.6) translate(198.725 176.4)"/><use xlink:href="#b" transform="matrix(1,0,0,1,92,825.6) translate(131.85 198)"/><use xlink:href="#j" transform="matrix(1,0,0,1,92,825.6) translate(147.35 198)"/><use xlink:href="#k" transform="matrix(1,0,0,1,92,825.6) translate(177.25 198)"/></g><g><use xlink:href="#b" transform="matrix(1,0,0,1,92,1057.5) translate(5.475000000000023 25.299999999999997)"/><use xlink:href="#I" transform="matrix(1,0,0,1,92,1057.5) translate(20.975000000000023 25.299999999999997)"/><use xlink:href="#m" transform="matrix(1,0,0,1,92,1057.5) translate(273.125 25.299999999999997)"/><use xlink:href="#J" transform="matrix(1,0,0,1,92,1057.5) translate(77.1 46.9)"/><use xlink:href="#K" transform="matrix(1,0,0,1,92,1057.5) translate(120.05 46.9)"/><use xlink:href="#L" transform="matrix(1,0,0,1,92,1057.5) translate(213.95000000000002 46.9)"/></g><path d="M630 568a8 8 0 0 1 8-8h624a8 8 0 0 1 8 8v485a8 8 0 0 1-8 8H638a8 8 0 0 1-8-8z" stroke="#333" fill="#fff"/><path d="M630 597.6h640m-640 80.7h640" stroke="#333" fill="none"/><g><use xlink:href="#M" transform="matrix(1,0,0,1,638,568) translate(226.15 14.6)"/></g><g><use xlink:href="#N" transform="matrix(1,0,0,1,642,605.6) translate(146.64999999999998 25.299999999999997)"/><use xlink:href="#O" transform="matrix(1,0,0,1,642,605.6) translate(157.59999999999997 25.299999999999997)"/><use xlink:href="#P" transform="matrix(1,0,0,1,642,605.6) translate(229.45 25.299999999999997)"/><use xlink:href="#Q" transform="matrix(1,0,0,1,642,605.6) translate(281.35 25.299999999999997)"/><use xlink:href="#R" transform="matrix(1,0,0,1,642,605.6) translate(296.85 25.299999999999997)"/><use xlink:href="#N" transform="matrix(1,0,0,1,642,605.6) translate(132.125 46.9)"/><use xlink:href="#S" transform="matrix(1,0,0,1,642,605.6) translate(143.075 46.9)"/><use xlink:href="#P" transform="matrix(1,0,0,1,642,605.6) translate(256.875 46.9)"/><use xlink:href="#Q" transform="matrix(1,0,0,1,642,605.6) translate(308.775 46.9)"/><use xlink:href="#T" transform="matrix(1,0,0,1,642,605.6) translate(324.275 46.9)"/></g><g><use xlink:href="#U" transform="matrix(1,0,0,1,642,686.3000000000001) translate(7.225000000000023 25.599999999999987)"/><use xlink:href="#V" transform="matrix(1,0,0,1,642,686.3000000000001) translate(22.725000000000023 25.599999999999987)"/><use xlink:href="#W" transform="matrix(1,0,0,1,642,686.3000000000001) translate(199.425 25.599999999999987)"/><use xlink:href="#Q" transform="matrix(1,0,0,1,642,686.3000000000001) translate(249.375 25.599999999999987)"/><use xlink:href="#X" transform="matrix(1,0,0,1,642,686.3000000000001) translate(264.875 25.599999999999987)"/><use xlink:href="#Y" transform="matrix(1,0,0,1,642,686.3000000000001) translate(281.675 25.599999999999987)"/><use xlink:href="#Z" transform="matrix(1,0,0,1,642,686.3000000000001) translate(305.625 25.599999999999987)"/><use xlink:href="#Q" transform="matrix(1,0,0,1,642,686.3000000000001) translate(350.625 25.599999999999987)"/><use xlink:href="#aa" transform="matrix(1,0,0,1,642,686.3000000000001) translate(366.125 25.599999999999987)"/><use xlink:href="#ab" transform="matrix(1,0,0,1,642,686.3000000000001) translate(393.075 25.599999999999987)"/><use xlink:href="#ac" transform="matrix(1,0,0,1,642,686.3000000000001) translate(408.075 25.599999999999987)"/><use xlink:href="#ad" transform="matrix(1,0,0,1,642,686.3000000000001) translate(308 47.19999999999999)"/><use xlink:href="#U" transform="matrix(1,0,0,1,642,686.3000000000001) translate(62.10000000000002 68.8)"/><use xlink:href="#ae" transform="matrix(1,0,0,1,642,686.3000000000001) translate(77.60000000000002 68.8)"/><use xlink:href="#af" transform="matrix(1,0,0,1,642,686.3000000000001) translate(314.3 68.8)"/><use xlink:href="#ag" transform="matrix(1,0,0,1,642,686.3000000000001) translate(353.2 68.8)"/><use xlink:href="#ad" transform="matrix(1,0,0,1,642,686.3000000000001) translate(308 90.4)"/><use xlink:href="#ah" transform="matrix(1,0,0,1,642,686.3000000000001) translate(177.725 112)"/><use xlink:href="#ai" transform="matrix(1,0,0,1,642,686.3000000000001) translate(198.225 112)"/><use xlink:href="#W" transform="matrix(1,0,0,1,642,686.3000000000001) translate(361.025 112)"/><use xlink:href="#Q" transform="matrix(1,0,0,1,642,686.3000000000001) translate(410.975 112)"/><use xlink:href="#aj" transform="matrix(1,0,0,1,642,686.3000000000001) translate(426.475 112)"/><use xlink:href="#ak" transform="matrix(1,0,0,1,642,686.3000000000001) translate(214.85 133.6)"/><use xlink:href="#Y" transform="matrix(1,0,0,1,642,686.3000000000001) translate(219.85 133.6)"/><use xlink:href="#al" transform="matrix(1,0,0,1,642,686.3000000000001) translate(243.79999999999998 133.6)"/><use xlink:href="#Q" transform="matrix(1,0,0,1,642,686.3000000000001) translate(370.65 133.6)"/><use xlink:href="#am" transform="matrix(1,0,0,1,642,686.3000000000001) translate(386.15 133.6)"/><use xlink:href="#an" transform="matrix(1,0,0,1,642,686.3000000000001) translate(116.55000000000001 155.2)"/><use xlink:href="#ao" transform="matrix(1,0,0,1,642,686.3000000000001) translate(168.45000000000002 155.2)"/><use xlink:href="#Q" transform="matrix(1,0,0,1,642,686.3000000000001) translate(236.4 155.2)"/><use xlink:href="#ap" transform="matrix(1,0,0,1,642,686.3000000000001) translate(251.9 155.2)"/><use xlink:href="#aq" transform="matrix(1,0,0,1,642,686.3000000000001) translate(312.65 155.2)"/><use xlink:href="#ad" transform="matrix(1,0,0,1,642,686.3000000000001) translate(308 176.79999999999998)"/><use xlink:href="#U" transform="matrix(1,0,0,1,642,686.3000000000001) translate(178.725 198.39999999999998)"/><use xlink:href="#ar" transform="matrix(1,0,0,1,642,686.3000000000001) translate(194.225 198.39999999999998)"/><use xlink:href="#W" transform="matrix(1,0,0,1,642,686.3000000000001) translate(360.025 198.39999999999998)"/><use xlink:href="#Q" transform="matrix(1,0,0,1,642,686.3000000000001) translate(409.975 198.39999999999998)"/><use xlink:href="#as" transform="matrix(1,0,0,1,642,686.3000000000001) translate(425.475 198.39999999999998)"/><use xlink:href="#at" transform="matrix(1,0,0,1,642,686.3000000000001) translate(154.89999999999998 219.99999999999997)"/><use xlink:href="#Z" transform="matrix(1,0,0,1,642,686.3000000000001) translate(178.84999999999997 219.99999999999997)"/><use xlink:href="#Q" transform="matrix(1,0,0,1,642,686.3000000000001) translate(223.84999999999997 219.99999999999997)"/><use xlink:href="#au" transform="matrix(1,0,0,1,642,686.3000000000001) translate(239.34999999999997 219.99999999999997)"/><use xlink:href="#av" transform="matrix(1,0,0,1,642,686.3000000000001) translate(271.29999999999995 219.99999999999997)"/><use xlink:href="#ad" transform="matrix(1,0,0,1,642,686.3000000000001) translate(308 241.59999999999997)"/><use xlink:href="#U" transform="matrix(1,0,0,1,642,686.3000000000001) translate(136.8 263.19999999999993)"/><use xlink:href="#aw" transform="matrix(1,0,0,1,642,686.3000000000001) translate(152.3 263.19999999999993)"/><use xlink:href="#ax" transform="matrix(1,0,0,1,642,686.3000000000001) translate(265.1 263.19999999999993)"/><use xlink:href="#ay" transform="matrix(1,0,0,1,642,686.3000000000001) translate(344.05 263.19999999999993)"/><use xlink:href="#W" transform="matrix(1,0,0,1,642,686.3000000000001) translate(401.95 263.19999999999993)"/><use xlink:href="#Q" transform="matrix(1,0,0,1,642,686.3000000000001) translate(451.9 263.19999999999993)"/><use xlink:href="#as" transform="matrix(1,0,0,1,642,686.3000000000001) translate(467.4 263.19999999999993)"/><use xlink:href="#an" transform="matrix(1,0,0,1,642,686.3000000000001) translate(240.89999999999998 284.79999999999995)"/><use xlink:href="#Z" transform="matrix(1,0,0,1,642,686.3000000000001) translate(292.79999999999995 284.79999999999995)"/><use xlink:href="#Q" transform="matrix(1,0,0,1,642,686.3000000000001) translate(337.79999999999995 284.79999999999995)"/><use xlink:href="#az" transform="matrix(1,0,0,1,642,686.3000000000001) translate(353.29999999999995 284.79999999999995)"/><use xlink:href="#an" transform="matrix(1,0,0,1,642,686.3000000000001) translate(200 306.4)"/><use xlink:href="#ao" transform="matrix(1,0,0,1,642,686.3000000000001) translate(251.9 306.4)"/><use xlink:href="#Q" transform="matrix(1,0,0,1,642,686.3000000000001) translate(319.85 306.4)"/><use xlink:href="#aA" transform="matrix(1,0,0,1,642,686.3000000000001) translate(335.35 306.4)"/><use xlink:href="#aB" transform="matrix(1,0,0,1,642,686.3000000000001) translate(364.1 306.4)"/><use xlink:href="#ad" transform="matrix(1,0,0,1,642,686.3000000000001) translate(308 328)"/><use xlink:href="#U" transform="matrix(1,0,0,1,642,686.3000000000001) translate(125.82499999999999 349.6)"/><use xlink:href="#aC" transform="matrix(1,0,0,1,642,686.3000000000001) translate(141.325 349.6)"/><use xlink:href="#aD" transform="matrix(1,0,0,1,642,686.3000000000001) translate(306.025 349.6)"/><use xlink:href="#Q" transform="matrix(1,0,0,1,642,686.3000000000001) translate(384.025 349.6)"/><use xlink:href="#aE" transform="matrix(1,0,0,1,642,686.3000000000001) translate(399.525 349.6)"/><use xlink:href="#aF" transform="matrix(1,0,0,1,642,686.3000000000001) translate(438.275 349.6)"/></g><path d="M1160.95 286h117.7" stroke="#333" fill="none"/><path d="M1160.96 286.5h-.5v-1h.5z" stroke="#333" stroke-width=".05" fill="#333"/><path d="M1261.36 296.18l17.2-10.18-17.2-10.18M629.05 810.5h-4.8m-4.8 0h-9.6m-4.82 0h-9.6m-4.8 0h-9.6m-4.82 0h-9.6m-4.8 0H557l-1.88.15-1.83.44-1.75.7m-4.26 3.65l-1 1.6-.7 1.74-.45 1.82v5.1m0 5.1l-.03 10.2m0 5.1l-.02 10.2m0 5.1v10.2m-.02 5.1v10.2m-.02 5.1v10.2m-.02 5.1v10.18m-.02 5.1v10.2m0 5.1L545 943l-.15 1.88-.44 1.83-.7 1.75m-3.65 4.26l-1.6 1-1.74.7-1.82.45h-4.9m-4.9.02l-9.8.02m-4.9 0l-9.8.02m-4.9 0l-9.8.03m-4.92 0l-9.8.03m-4.9 0l-4.9.02" stroke="#333" fill="none"/><path d="M629.55 811h-.5v-1h.5z" stroke="#333" stroke-width=".05" fill="#333"/><path d="M478.65 944.82L461.43 955l17.22 10.18M950 559.05v-4.76m0-4.77V540m0-4.75v-9.52m0-4.76v-9.53m0-4.76v-9.52m0-4.76v-9.52m0-4.76v-4.76" stroke="#333" fill="none"/><path d="M950.5 559.55h-1v-.5h1z" stroke="#333" stroke-width=".05" fill="#333"/><path d="M960.18 490.65L950 473.43l-10.18 17.22M629.05 810.5h-4.8m-4.8 0h-9.6m-4.82 0h-9.6m-4.8 0h-9.6m-4.82 0h-9.6m-4.8 0H557l-1.88-.15-1.83-.44-1.75-.7m-4.26-3.65l-1-1.6-.7-1.74-.45-1.82v-5.13m0-5.12V779.9m-.02-5.13v-10.25m0-5.12v-10.25m-.02-5.12V733.8m0-5.14v-10.24m0-5.12v-10.25m0-5.12l-.02-10.25m0-5.12v-10.24m0-5.13l-.02-10.25m0-5.12v-10.25m0-5.12l-.02-10.25m0-5.1v-10.25m0-5.13l-.02-10.24m0-5.12V580.1m0-5.1v-10.26m-.02-5.12v-5.12l-.15-1.88-.44-1.83-.7-1.75m-3.65-4.26l-1.6-1-1.74-.7-1.82-.45h-4.9m-4.9-.02l-9.8-.02m-4.9 0l-9.8-.02m-4.9 0l-9.8-.03m-4.92 0l-9.8-.03m-4.9 0l-4.9-.02" stroke="#333" fill="none"/><path d="M629.55 811h-.5v-1h.5z" stroke="#333" stroke-width=".05" fill="#333"/><path d="M478.65 532.32l-17.22 10.18 17.22 10.18" stroke="#333" fill="none"/><defs><path fill="#333" d="M30 0v-248h33v221h125V0H30" id="aG"/><path fill="#333" d="M100-194c62-1 85 37 85 99 1 63-27 99-86 99S16-35 15-95c0-66 28-99 85-99zM99-20c44 1 53-31 53-75 0-43-8-75-51-75s-53 32-53 75 10 74 51 75" id="aH"/><path fill="#333" d="M96-169c-40 0-48 33-48 73s9 75 48 75c24 0 41-14 43-38l32 2c-6 37-31 61-74 61-59 0-76-41-82-99-10-93 101-131 147-64 4 7 5 14 7 22l-32 3c-4-21-16-35-41-35" id="aI"/><path fill="#333" d="M141-36C126-15 110 5 73 4 37 3 15-17 15-53c-1-64 63-63 125-63 3-35-9-54-41-54-24 1-41 7-42 31l-33-3c5-37 33-52 76-52 45 0 72 20 72 64v82c-1 20 7 32 28 27v20c-31 9-61-2-59-35zM48-53c0 20 12 33 32 33 41-3 63-29 60-74-43 2-92-5-92 41" id="aJ"/><path fill="#333" d="M59-47c-2 24 18 29 38 22v24C64 9 27 4 27-40v-127H5v-23h24l9-43h21v43h35v23H59v120" id="aK"/><path fill="#333" d="M24-231v-30h32v30H24zM24 0v-190h32V0H24" id="aL"/><path fill="#333" d="M117-194c89-4 53 116 60 194h-32v-121c0-31-8-49-39-48C34-167 62-67 57 0H25l-1-190h30c1 10-1 24 2 32 11-22 29-35 61-36" id="aM"/><g id="a"><use transform="matrix(0.05,0,0,0.05,0,0)" xlink:href="#aG"/><use transform="matrix(0.05,0,0,0.05,10,0)" xlink:href="#aH"/><use transform="matrix(0.05,0,0,0.05,20,0)" xlink:href="#aI"/><use transform="matrix(0.05,0,0,0.05,29,0)" xlink:href="#aJ"/><use transform="matrix(0.05,0,0,0.05,39,0)" xlink:href="#aK"/><use transform="matrix(0.05,0,0,0.05,44,0)" xlink:href="#aL"/><use transform="matrix(0.05,0,0,0.05,47.95,0)" xlink:href="#aH"/><use transform="matrix(0.05,0,0,0.05,57.95,0)" xlink:href="#aM"/></g><path fill="#333" d="M118-107v75H92v-75H18v-26h74v-75h26v75h74v26h-74" id="aN"/><use transform="matrix(0.05,0,0,0.05,0,0)" xlink:href="#aN" id="b"/><path fill="#333" d="M85-194c31 0 48 13 60 33l-1-100h32l1 261h-30c-2-10 0-23-3-31C134-8 116 4 85 4 32 4 16-35 15-94c0-66 23-100 70-100zm9 24c-40 0-46 34-46 75 0 40 6 74 45 74 42 0 51-32 51-76 0-42-9-74-50-73" id="aO"/><path fill="#333" d="M33-154v-36h34v36H33zM33 0v-36h34V0H33" id="aP"/><g id="c"><use transform="matrix(0.05,0,0,0.05,0,0)" xlink:href="#aL"/><use transform="matrix(0.05,0,0,0.05,3.95,0)" xlink:href="#aO"/><use transform="matrix(0.05,0,0,0.05,13.949999999999998,0)" xlink:href="#aP"/></g><g id="d"><use transform="matrix(0.05,0,0,0.05,0,0)" xlink:href="#aL"/><use transform="matrix(0.05,0,0,0.05,3.95,0)" xlink:href="#aM"/><use transform="matrix(0.05,0,0,0.05,13.949999999999998,0)" xlink:href="#aK"/></g><path fill="#333" d="M210-169c-67 3-38 105-44 169h-31v-121c0-29-5-50-35-48C34-165 62-65 56 0H25l-1-190h30c1 10-1 24 2 32 10-44 99-50 107 0 11-21 27-35 58-36 85-2 47 119 55 194h-31v-121c0-29-5-49-35-48" id="aQ"/><path fill="#333" d="M100-194c63 0 86 42 84 106H49c0 40 14 67 53 68 26 1 43-12 49-29l28 8c-11 28-37 45-77 45C44 4 14-33 15-96c1-61 26-98 85-98zm52 81c6-60-76-77-97-28-3 7-6 17-6 28h103" id="aR"/><g id="e"><use transform="matrix(0.05,0,0,0.05,0,0)" xlink:href="#aM"/><use transform="matrix(0.05,0,0,0.05,10,0)" xlink:href="#aJ"/><use transform="matrix(0.05,0,0,0.05,20,0)" xlink:href="#aQ"/><use transform="matrix(0.05,0,0,0.05,34.95,0)" xlink:href="#aR"/><use transform="matrix(0.05,0,0,0.05,44.95,0)" xlink:href="#aP"/></g><path fill="#333" d="M185-189c-5-48-123-54-124 2 14 75 158 14 163 119 3 78-121 87-175 55-17-10-28-26-33-46l33-7c5 56 141 63 141-1 0-78-155-14-162-118-5-82 145-84 179-34 5 7 8 16 11 25" id="aS"/><path fill="#333" d="M114-163C36-179 61-72 57 0H25l-1-190h30c1 12-1 29 2 39 6-27 23-49 58-41v29" id="aT"/><path fill="#333" d="M177-190C167-65 218 103 67 71c-23-6-38-20-44-43l32-5c15 47 100 32 89-28v-30C133-14 115 1 83 1 29 1 15-40 15-95c0-56 16-97 71-98 29-1 48 16 59 35 1-10 0-23 2-32h30zM94-22c36 0 50-32 50-73 0-42-14-75-50-75-39 0-46 34-46 75s6 73 46 73" id="aU"/><g id="f"><use transform="matrix(0.05,0,0,0.05,0,0)" xlink:href="#aS"/><use transform="matrix(0.05,0,0,0.05,12,0)" xlink:href="#aK"/><use transform="matrix(0.05,0,0,0.05,17,0)" xlink:href="#aT"/><use transform="matrix(0.05,0,0,0.05,22.95,0)" xlink:href="#aL"/><use transform="matrix(0.05,0,0,0.05,26.899999999999995,0)" xlink:href="#aM"/><use transform="matrix(0.05,0,0,0.05,36.9,0)" xlink:href="#aU"/></g><path fill="#333" d="M179-190L93 31C79 59 56 82 12 73V49c39 6 53-20 64-50L1-190h34L92-34l54-156h33" id="aV"/><path fill="#333" d="M115-194c55 1 70 41 70 98S169 2 115 4C84 4 66-9 55-30l1 105H24l-1-265h31l2 30c10-21 28-34 59-34zm-8 174c40 0 45-34 45-75s-6-73-45-74c-42 0-51 32-51 76 0 43 10 73 51 73" id="aW"/><g id="g"><use transform="matrix(0.05,0,0,0.05,0,0)" xlink:href="#aK"/><use transform="matrix(0.05,0,0,0.05,5,0)" xlink:href="#aV"/><use transform="matrix(0.05,0,0,0.05,14,0)" xlink:href="#aW"/><use transform="matrix(0.05,0,0,0.05,24,0)" xlink:href="#aR"/><use transform="matrix(0.05,0,0,0.05,34,0)" xlink:href="#aP"/></g><path fill="#333" d="M135-143c-3-34-86-38-87 0 15 53 115 12 119 90S17 21 10-45l28-5c4 36 97 45 98 0-10-56-113-15-118-90-4-57 82-63 122-42 12 7 21 19 24 35" id="aX"/><g id="h"><use transform="matrix(0.05,0,0,0.05,0,0)" xlink:href="#aO"/><use transform="matrix(0.05,0,0,0.05,10,0)" xlink:href="#aL"/><use transform="matrix(0.05,0,0,0.05,13.949999999999998,0)" xlink:href="#aQ"/><use transform="matrix(0.05,0,0,0.05,28.899999999999995,0)" xlink:href="#aR"/><use transform="matrix(0.05,0,0,0.05,38.9,0)" xlink:href="#aM"/><use transform="matrix(0.05,0,0,0.05,48.9,0)" xlink:href="#aX"/><use transform="matrix(0.05,0,0,0.05,57.900000000000006,0)" xlink:href="#aL"/><use transform="matrix(0.05,0,0,0.05,61.85,0)" xlink:href="#aH"/><use transform="matrix(0.05,0,0,0.05,71.85,0)" xlink:href="#aM"/><use transform="matrix(0.05,0,0,0.05,81.85,0)" xlink:href="#aP"/></g><path fill="#333" d="M18-100v-36l175-74v27L42-118l151 64v27" id="aY"/><path fill="#333" d="M18-27v-27l151-64-151-65v-27l175 74v36" id="aZ"/><g id="i"><use transform="matrix(0.05,0,0,0.05,0,0)" xlink:href="#aG"/><use transform="matrix(0.05,0,0,0.05,10,0)" xlink:href="#aL"/><use transform="matrix(0.05,0,0,0.05,13.949999999999998,0)" xlink:href="#aX"/><use transform="matrix(0.05,0,0,0.05,22.95,0)" xlink:href="#aK"/><use transform="matrix(0.05,0,0,0.05,27.950000000000003,0)" xlink:href="#aY"/><use transform="matrix(0.05,0,0,0.05,38.45,0)" xlink:href="#aL"/><use transform="matrix(0.05,0,0,0.05,42.400000000000006,0)" xlink:href="#aM"/><use transform="matrix(0.05,0,0,0.05,52.400000000000006,0)" xlink:href="#aK"/><use transform="matrix(0.05,0,0,0.05,57.400000000000006,0)" xlink:href="#aZ"/></g><path fill="#333" d="M84 4C-5 8 30-112 23-190h32v120c0 31 7 50 39 49 72-2 45-101 50-169h31l1 190h-30c-1-10 1-25-2-33-11 22-28 36-60 37" id="ba"/><path fill="#333" d="M24 0v-261h32V0H24" id="bb"/><g id="j"><use transform="matrix(0.05,0,0,0.05,0,0)" xlink:href="#ba"/><use transform="matrix(0.05,0,0,0.05,10,0)" xlink:href="#aT"/><use transform="matrix(0.05,0,0,0.05,15.949999999999998,0)" xlink:href="#bb"/><use transform="matrix(0.05,0,0,0.05,19.9,0)" xlink:href="#aP"/></g><g id="k"><use transform="matrix(0.05,0,0,0.05,0,0)" xlink:href="#aS"/><use transform="matrix(0.05,0,0,0.05,12,0)" xlink:href="#aK"/><use transform="matrix(0.05,0,0,0.05,17,0)" xlink:href="#aT"/><use transform="matrix(0.05,0,0,0.05,22.95,0)" xlink:href="#aL"/><use transform="matrix(0.05,0,0,0.05,26.899999999999995,0)" xlink:href="#aM"/><use transform="matrix(0.05,0,0,0.05,36.9,0)" xlink:href="#aU"/></g><path fill="#333" d="M33 0v-38h34V0H33" id="bc"/><path fill="#333" d="M101-234c-31-9-42 10-38 44h38v23H63V0H32v-167H5v-23h27c-7-52 17-82 69-68v24" id="bd"/><path fill="#333" d="M153-248C145-148 188 4 80 4 36 3 13-21 6-62l32-5c4 25 16 42 43 43 27 0 39-20 39-49v-147H72v-28h81" id="be"/><path fill="#333" d="M87 75C49 33 22-17 22-94c0-76 28-126 65-167h31c-38 41-64 92-64 168S80 34 118 75H87" id="bf"/><path fill="#333" d="M240 0l2-218c-23 76-54 145-80 218h-23L58-218 59 0H30v-248h44l77 211c21-75 51-140 76-211h43V0h-30" id="bg"/><path fill="#333" d="M68-38c1 34 0 65-14 84H32c9-13 17-26 17-46H33v-38h35" id="bh"/><g id="l"><use transform="matrix(0.05,0,0,0.05,0,0)" xlink:href="#aG"/><use transform="matrix(0.05,0,0,0.05,10,0)" xlink:href="#aH"/><use transform="matrix(0.05,0,0,0.05,20,0)" xlink:href="#aI"/><use transform="matrix(0.05,0,0,0.05,29,0)" xlink:href="#aJ"/><use transform="matrix(0.05,0,0,0.05,39,0)" xlink:href="#aK"/><use transform="matrix(0.05,0,0,0.05,44,0)" xlink:href="#aL"/><use transform="matrix(0.05,0,0,0.05,47.95,0)" xlink:href="#aH"/><use transform="matrix(0.05,0,0,0.05,57.95,0)" xlink:href="#aM"/><use transform="matrix(0.05,0,0,0.05,67.95,0)" xlink:href="#bc"/><use transform="matrix(0.05,0,0,0.05,72.95,0)" xlink:href="#bd"/><use transform="matrix(0.05,0,0,0.05,77.95,0)" xlink:href="#aT"/><use transform="matrix(0.05,0,0,0.05,83.9,0)" xlink:href="#aH"/><use transform="matrix(0.05,0,0,0.05,93.9,0)" xlink:href="#aQ"/><use transform="matrix(0.05,0,0,0.05,108.85000000000001,0)" xlink:href="#be"/><use transform="matrix(0.05,0,0,0.05,117.85000000000001,0)" xlink:href="#aX"/><use transform="matrix(0.05,0,0,0.05,126.85000000000001,0)" xlink:href="#aH"/><use transform="matrix(0.05,0,0,0.05,136.85000000000002,0)" xlink:href="#aM"/><use transform="matrix(0.05,0,0,0.05,146.85000000000002,0)" xlink:href="#bf"/><use transform="matrix(0.05,0,0,0.05,152.8,0)" xlink:href="#bg"/><use transform="matrix(0.05,0,0,0.05,167.75,0)" xlink:href="#aJ"/><use transform="matrix(0.05,0,0,0.05,177.75,0)" xlink:href="#aW"/><use transform="matrix(0.05,0,0,0.05,187.75,0)" xlink:href="#aY"/><use transform="matrix(0.05,0,0,0.05,198.25,0)" xlink:href="#aS"/><use transform="matrix(0.05,0,0,0.05,210.25,0)" xlink:href="#aK"/><use transform="matrix(0.05,0,0,0.05,215.25,0)" xlink:href="#aT"/><use transform="matrix(0.05,0,0,0.05,221.19999999999996,0)" xlink:href="#aL"/><use transform="matrix(0.05,0,0,0.05,225.14999999999998,0)" xlink:href="#aM"/><use transform="matrix(0.05,0,0,0.05,235.14999999999998,0)" xlink:href="#aU"/><use transform="matrix(0.05,0,0,0.05,245.14999999999998,0)" xlink:href="#bh"/></g><g id="m"><use transform="matrix(0.05,0,0,0.05,0,0)" xlink:href="#aO"/><use transform="matrix(0.05,0,0,0.05,10,0)" xlink:href="#aV"/><use transform="matrix(0.05,0,0,0.05,19,0)" xlink:href="#aM"/><use transform="matrix(0.05,0,0,0.05,29,0)" xlink:href="#aJ"/><use transform="matrix(0.05,0,0,0.05,39,0)" xlink:href="#aQ"/><use transform="matrix(0.05,0,0,0.05,53.95,0)" xlink:href="#aL"/><use transform="matrix(0.05,0,0,0.05,57.900000000000006,0)" xlink:href="#aI"/><use transform="matrix(0.05,0,0,0.05,66.9,0)" xlink:href="#aZ"/></g><path fill="#333" d="M24-231v-30h32v30H24zM-9 49c24 4 33-6 33-30v-209h32V24c2 40-23 58-65 49V49" id="bi"/><path fill="#333" d="M33-261c38 41 65 92 65 168S71 34 33 75H2C39 34 66-17 66-93S39-220 2-261h31" id="bj"/><g id="n"><use transform="matrix(0.05,0,0,0.05,0,0)" xlink:href="#bi"/><use transform="matrix(0.05,0,0,0.05,3.95,0)" xlink:href="#aX"/><use transform="matrix(0.05,0,0,0.05,12.949999999999998,0)" xlink:href="#aH"/><use transform="matrix(0.05,0,0,0.05,22.95,0)" xlink:href="#aM"/><use transform="matrix(0.05,0,0,0.05,32.95,0)" xlink:href="#bj"/><use transform="matrix(0.05,0,0,0.05,38.900000000000006,0)" xlink:href="#aP"/></g><g id="o"><use transform="matrix(0.05,0,0,0.05,0,0)" xlink:href="#aG"/><use transform="matrix(0.05,0,0,0.05,10,0)" xlink:href="#aH"/><use transform="matrix(0.05,0,0,0.05,20,0)" xlink:href="#aI"/><use transform="matrix(0.05,0,0,0.05,29,0)" xlink:href="#aJ"/><use transform="matrix(0.05,0,0,0.05,39,0)" xlink:href="#aK"/><use transform="matrix(0.05,0,0,0.05,44,0)" xlink:href="#aL"/><use transform="matrix(0.05,0,0,0.05,47.95,0)" xlink:href="#aH"/><use transform="matrix(0.05,0,0,0.05,57.95,0)" xlink:href="#aM"/></g><path fill="#333" d="M212-179c-10-28-35-45-73-45-59 0-87 40-87 99 0 60 29 101 89 101 43 0 62-24 78-52l27 14C228-24 195 4 139 4 59 4 22-46 18-125c-6-104 99-153 187-111 19 9 31 26 39 46" id="bk"/><path fill="#333" d="M106-169C34-169 62-67 57 0H25v-261h32l-1 103c12-21 28-36 61-36 89 0 53 116 60 194h-32v-121c2-32-8-49-39-48" id="bl"/><g id="p"><use transform="matrix(0.05,0,0,0.05,0,0)" xlink:href="#bk"/><use transform="matrix(0.05,0,0,0.05,12.950000000000001,0)" xlink:href="#bl"/><use transform="matrix(0.05,0,0,0.05,22.950000000000003,0)" xlink:href="#aJ"/><use transform="matrix(0.05,0,0,0.05,32.95,0)" xlink:href="#aT"/><use transform="matrix(0.05,0,0,0.05,38.900000000000006,0)" xlink:href="#aJ"/><use transform="matrix(0.05,0,0,0.05,48.900000000000006,0)" xlink:href="#aI"/><use transform="matrix(0.05,0,0,0.05,57.900000000000006,0)" xlink:href="#aK"/><use transform="matrix(0.05,0,0,0.05,62.900000000000006,0)" xlink:href="#aR"/><use transform="matrix(0.05,0,0,0.05,72.9,0)" xlink:href="#aT"/></g><g id="q"><use transform="matrix(0.05,0,0,0.05,0,0)" xlink:href="#aX"/><use transform="matrix(0.05,0,0,0.05,9,0)" xlink:href="#aK"/><use transform="matrix(0.05,0,0,0.05,14,0)" xlink:href="#aJ"/><use transform="matrix(0.05,0,0,0.05,24,0)" xlink:href="#aK"/><use transform="matrix(0.05,0,0,0.05,29,0)" xlink:href="#ba"/><use transform="matrix(0.05,0,0,0.05,39,0)" xlink:href="#aX"/><use transform="matrix(0.05,0,0,0.05,48,0)" xlink:href="#aP"/></g><g id="r"><use transform="matrix(0.05,0,0,0.05,0,0)" xlink:href="#aX"/><use transform="matrix(0.05,0,0,0.05,9,0)" xlink:href="#aW"/><use transform="matrix(0.05,0,0,0.05,19,0)" xlink:href="#aR"/><use transform="matrix(0.05,0,0,0.05,29,0)" xlink:href="#aI"/><use transform="matrix(0.05,0,0,0.05,38,0)" xlink:href="#aL"/><use transform="matrix(0.05,0,0,0.05,41.95,0)" xlink:href="#aR"/><use transform="matrix(0.05,0,0,0.05,51.95,0)" xlink:href="#aX"/><use transform="matrix(0.05,0,0,0.05,60.95,0)" xlink:href="#aP"/></g><g id="s"><use transform="matrix(0.05,0,0,0.05,0,0)" xlink:href="#aU"/><use transform="matrix(0.05,0,0,0.05,10,0)" xlink:href="#aR"/><use transform="matrix(0.05,0,0,0.05,20,0)" xlink:href="#aM"/><use transform="matrix(0.05,0,0,0.05,30,0)" xlink:href="#aO"/><use transform="matrix(0.05,0,0,0.05,40,0)" xlink:href="#aR"/><use transform="matrix(0.05,0,0,0.05,50,0)" xlink:href="#aT"/><use transform="matrix(0.05,0,0,0.05,55.95,0)" xlink:href="#aP"/></g><g id="t"><use transform="matrix(0.05,0,0,0.05,0,0)" xlink:href="#aH"/><use transform="matrix(0.05,0,0,0.05,10,0)" xlink:href="#aT"/><use transform="matrix(0.05,0,0,0.05,15.949999999999998,0)" xlink:href="#aL"/><use transform="matrix(0.05,0,0,0.05,19.9,0)" xlink:href="#aU"/><use transform="matrix(0.05,0,0,0.05,29.899999999999995,0)" xlink:href="#aL"/><use transform="matrix(0.05,0,0,0.05,33.85,0)" xlink:href="#aM"/><use transform="matrix(0.05,0,0,0.05,43.85,0)" xlink:href="#aP"/></g><g id="u"><use transform="matrix(0.05,0,0,0.05,0,0)" xlink:href="#bk"/><use transform="matrix(0.05,0,0,0.05,12.950000000000001,0)" xlink:href="#bl"/><use transform="matrix(0.05,0,0,0.05,22.950000000000003,0)" xlink:href="#aJ"/><use transform="matrix(0.05,0,0,0.05,32.95,0)" xlink:href="#aT"/><use transform="matrix(0.05,0,0,0.05,38.900000000000006,0)" xlink:href="#aJ"/><use transform="matrix(0.05,0,0,0.05,48.900000000000006,0)" xlink:href="#aI"/><use transform="matrix(0.05,0,0,0.05,57.900000000000006,0)" xlink:href="#aK"/><use transform="matrix(0.05,0,0,0.05,62.900000000000006,0)" xlink:href="#aR"/><use transform="matrix(0.05,0,0,0.05,72.9,0)" xlink:href="#aT"/><use transform="matrix(0.05,0,0,0.05,78.85000000000001,0)" xlink:href="#aG"/><use transform="matrix(0.05,0,0,0.05,88.85000000000001,0)" xlink:href="#aH"/><use transform="matrix(0.05,0,0,0.05,98.85000000000001,0)" xlink:href="#aI"/><use transform="matrix(0.05,0,0,0.05,107.85000000000001,0)" xlink:href="#aJ"/><use transform="matrix(0.05,0,0,0.05,117.85000000000001,0)" xlink:href="#aK"/><use transform="matrix(0.05,0,0,0.05,122.85000000000001,0)" xlink:href="#aL"/><use transform="matrix(0.05,0,0,0.05,126.80000000000001,0)" xlink:href="#aH"/><use transform="matrix(0.05,0,0,0.05,136.8,0)" xlink:href="#aM"/></g><g id="v"><use transform="matrix(0.05,0,0,0.05,0,0)" xlink:href="#bb"/><use transform="matrix(0.05,0,0,0.05,3.95,0)" xlink:href="#aH"/><use transform="matrix(0.05,0,0,0.05,13.949999999999998,0)" xlink:href="#aI"/><use transform="matrix(0.05,0,0,0.05,22.95,0)" xlink:href="#aJ"/><use transform="matrix(0.05,0,0,0.05,32.95,0)" xlink:href="#aK"/><use transform="matrix(0.05,0,0,0.05,37.95,0)" xlink:href="#aL"/><use transform="matrix(0.05,0,0,0.05,41.900000000000006,0)" xlink:href="#aH"/><use transform="matrix(0.05,0,0,0.05,51.900000000000006,0)" xlink:href="#aM"/><use transform="matrix(0.05,0,0,0.05,61.900000000000006,0)" xlink:href="#aP"/></g><g id="w"><use transform="matrix(0.05,0,0,0.05,0,0)" xlink:href="#aL"/><use transform="matrix(0.05,0,0,0.05,3.95,0)" xlink:href="#aQ"/><use transform="matrix(0.05,0,0,0.05,18.900000000000002,0)" xlink:href="#aJ"/><use transform="matrix(0.05,0,0,0.05,28.900000000000002,0)" xlink:href="#aU"/><use transform="matrix(0.05,0,0,0.05,38.900000000000006,0)" xlink:href="#aR"/><use transform="matrix(0.05,0,0,0.05,48.900000000000006,0)" xlink:href="#aP"/></g><g id="x"><use transform="matrix(0.05,0,0,0.05,0,0)" xlink:href="#bk"/><use transform="matrix(0.05,0,0,0.05,12.950000000000001,0)" xlink:href="#bl"/><use transform="matrix(0.05,0,0,0.05,22.950000000000003,0)" xlink:href="#aJ"/><use transform="matrix(0.05,0,0,0.05,32.95,0)" xlink:href="#aT"/><use transform="matrix(0.05,0,0,0.05,38.900000000000006,0)" xlink:href="#aJ"/><use transform="matrix(0.05,0,0,0.05,48.900000000000006,0)" xlink:href="#aI"/><use transform="matrix(0.05,0,0,0.05,57.900000000000006,0)" xlink:href="#aK"/><use transform="matrix(0.05,0,0,0.05,62.900000000000006,0)" xlink:href="#aR"/><use transform="matrix(0.05,0,0,0.05,72.9,0)" xlink:href="#aT"/><use transform="matrix(0.05,0,0,0.05,77.85000000000001,0)" xlink:href="#bc"/><use transform="matrix(0.05,0,0,0.05,82.85000000000001,0)" xlink:href="#bd"/><use transform="matrix(0.05,0,0,0.05,87.85000000000001,0)" xlink:href="#aT"/><use transform="matrix(0.05,0,0,0.05,93.80000000000001,0)" xlink:href="#aH"/><use transform="matrix(0.05,0,0,0.05,103.80000000000001,0)" xlink:href="#aQ"/><use transform="matrix(0.05,0,0,0.05,118.75,0)" xlink:href="#be"/><use transform="matrix(0.05,0,0,0.05,127.75,0)" xlink:href="#aX"/><use transform="matrix(0.05,0,0,0.05,136.75,0)" xlink:href="#aH"/><use transform="matrix(0.05,0,0,0.05,146.75,0)" xlink:href="#aM"/><use transform="matrix(0.05,0,0,0.05,156.75,0)" xlink:href="#bf"/><use transform="matrix(0.05,0,0,0.05,162.7,0)" xlink:href="#bg"/><use transform="matrix(0.05,0,0,0.05,177.64999999999998,0)" xlink:href="#aJ"/><use transform="matrix(0.05,0,0,0.05,187.64999999999998,0)" xlink:href="#aW"/><use transform="matrix(0.05,0,0,0.05,197.64999999999998,0)" xlink:href="#aY"/><use transform="matrix(0.05,0,0,0.05,208.14999999999998,0)" xlink:href="#aS"/><use transform="matrix(0.05,0,0,0.05,220.14999999999998,0)" xlink:href="#aK"/><use transform="matrix(0.05,0,0,0.05,225.14999999999998,0)" xlink:href="#aT"/><use transform="matrix(0.05,0,0,0.05,231.09999999999997,0)" xlink:href="#aL"/><use transform="matrix(0.05,0,0,0.05,235.04999999999995,0)" xlink:href="#aM"/><use transform="matrix(0.05,0,0,0.05,245.04999999999995,0)" xlink:href="#aU"/><use transform="matrix(0.05,0,0,0.05,255.04999999999995,0)" xlink:href="#bh"/></g><g id="y"><use transform="matrix(0.05,0,0,0.05,0,0)" xlink:href="#bk"/><use transform="matrix(0.05,0,0,0.05,12.950000000000001,0)" xlink:href="#bl"/><use transform="matrix(0.05,0,0,0.05,22.950000000000003,0)" xlink:href="#aJ"/><use transform="matrix(0.05,0,0,0.05,32.95,0)" xlink:href="#aT"/><use transform="matrix(0.05,0,0,0.05,38.900000000000006,0)" xlink:href="#aJ"/><use transform="matrix(0.05,0,0,0.05,48.900000000000006,0)" xlink:href="#aI"/><use transform="matrix(0.05,0,0,0.05,57.900000000000006,0)" xlink:href="#aK"/><use transform="matrix(0.05,0,0,0.05,62.900000000000006,0)" xlink:href="#aR"/><use transform="matrix(0.05,0,0,0.05,72.9,0)" xlink:href="#aT"/></g><g id="z"><use transform="matrix(0.05,0,0,0.05,0,0)" xlink:href="#bk"/><use transform="matrix(0.05,0,0,0.05,12.950000000000001,0)" xlink:href="#bl"/><use transform="matrix(0.05,0,0,0.05,22.950000000000003,0)" xlink:href="#aJ"/><use transform="matrix(0.05,0,0,0.05,32.95,0)" xlink:href="#aT"/><use transform="matrix(0.05,0,0,0.05,38.900000000000006,0)" xlink:href="#aJ"/><use transform="matrix(0.05,0,0,0.05,48.900000000000006,0)" xlink:href="#aI"/><use transform="matrix(0.05,0,0,0.05,57.900000000000006,0)" xlink:href="#aK"/><use transform="matrix(0.05,0,0,0.05,62.900000000000006,0)" xlink:href="#aR"/><use transform="matrix(0.05,0,0,0.05,72.9,0)" xlink:href="#aT"/><use transform="matrix(0.05,0,0,0.05,78.85000000000001,0)" xlink:href="#aG"/><use transform="matrix(0.05,0,0,0.05,88.85000000000001,0)" xlink:href="#aH"/><use transform="matrix(0.05,0,0,0.05,98.85000000000001,0)" xlink:href="#aI"/><use transform="matrix(0.05,0,0,0.05,107.85000000000001,0)" xlink:href="#aJ"/><use transform="matrix(0.05,0,0,0.05,117.85000000000001,0)" xlink:href="#aK"/><use transform="matrix(0.05,0,0,0.05,122.85000000000001,0)" xlink:href="#aL"/><use transform="matrix(0.05,0,0,0.05,126.80000000000001,0)" xlink:href="#aH"/><use transform="matrix(0.05,0,0,0.05,136.8,0)" xlink:href="#aM"/></g><g id="A"><use transform="matrix(0.05,0,0,0.05,0,0)" xlink:href="#bk"/><use transform="matrix(0.05,0,0,0.05,12.950000000000001,0)" xlink:href="#bl"/><use transform="matrix(0.05,0,0,0.05,22.950000000000003,0)" xlink:href="#aJ"/><use transform="matrix(0.05,0,0,0.05,32.95,0)" xlink:href="#aT"/><use transform="matrix(0.05,0,0,0.05,38.900000000000006,0)" xlink:href="#aJ"/><use transform="matrix(0.05,0,0,0.05,48.900000000000006,0)" xlink:href="#aI"/><use transform="matrix(0.05,0,0,0.05,57.900000000000006,0)" xlink:href="#aK"/><use transform="matrix(0.05,0,0,0.05,62.900000000000006,0)" xlink:href="#aR"/><use transform="matrix(0.05,0,0,0.05,72.9,0)" xlink:href="#aT"/><use transform="matrix(0.05,0,0,0.05,78.85000000000001,0)" xlink:href="#aG"/><use transform="matrix(0.05,0,0,0.05,88.85000000000001,0)" xlink:href="#aH"/><use transform="matrix(0.05,0,0,0.05,98.85000000000001,0)" xlink:href="#aI"/><use transform="matrix(0.05,0,0,0.05,107.85000000000001,0)" xlink:href="#aJ"/><use transform="matrix(0.05,0,0,0.05,117.85000000000001,0)" xlink:href="#aK"/><use transform="matrix(0.05,0,0,0.05,122.85000000000001,0)" xlink:href="#aL"/><use transform="matrix(0.05,0,0,0.05,126.80000000000001,0)" xlink:href="#aH"/><use transform="matrix(0.05,0,0,0.05,136.8,0)" xlink:href="#aM"/><use transform="matrix(0.05,0,0,0.05,146.8,0)" xlink:href="#bc"/><use transform="matrix(0.05,0,0,0.05,151.8,0)" xlink:href="#bd"/><use transform="matrix(0.05,0,0,0.05,156.8,0)" xlink:href="#aT"/><use transform="matrix(0.05,0,0,0.05,162.75,0)" xlink:href="#aH"/><use transform="matrix(0.05,0,0,0.05,172.75,0)" xlink:href="#aQ"/><use transform="matrix(0.05,0,0,0.05,187.7,0)" xlink:href="#be"/><use transform="matrix(0.05,0,0,0.05,196.7,0)" xlink:href="#aX"/><use transform="matrix(0.05,0,0,0.05,205.69999999999996,0)" xlink:href="#aH"/><use transform="matrix(0.05,0,0,0.05,215.69999999999996,0)" xlink:href="#aM"/><use transform="matrix(0.05,0,0,0.05,225.69999999999996,0)" xlink:href="#bf"/><use transform="matrix(0.05,0,0,0.05,231.64999999999998,0)" xlink:href="#bg"/><use transform="matrix(0.05,0,0,0.05,246.59999999999997,0)" xlink:href="#aJ"/><use transform="matrix(0.05,0,0,0.05,256.59999999999997,0)" xlink:href="#aW"/><use transform="matrix(0.05,0,0,0.05,266.59999999999997,0)" xlink:href="#aY"/><use transform="matrix(0.05,0,0,0.05,277.09999999999997,0)" xlink:href="#aS"/><use transform="matrix(0.05,0,0,0.05,289.09999999999997,0)" xlink:href="#aK"/><use transform="matrix(0.05,0,0,0.05,294.09999999999997,0)" xlink:href="#aT"/><use transform="matrix(0.05,0,0,0.05,300.04999999999995,0)" xlink:href="#aL"/><use transform="matrix(0.05,0,0,0.05,303.99999999999994,0)" xlink:href="#aM"/><use transform="matrix(0.05,0,0,0.05,313.99999999999994,0)" xlink:href="#aU"/><use transform="matrix(0.05,0,0,0.05,323.99999999999994,0)" xlink:href="#bh"/></g><g id="B"><use transform="matrix(0.05,0,0,0.05,0,0)" xlink:href="#bk"/><use transform="matrix(0.05,0,0,0.05,12.950000000000001,0)" xlink:href="#bl"/><use transform="matrix(0.05,0,0,0.05,22.950000000000003,0)" xlink:href="#aJ"/><use transform="matrix(0.05,0,0,0.05,32.95,0)" xlink:href="#aT"/><use transform="matrix(0.05,0,0,0.05,38.900000000000006,0)" xlink:href="#aJ"/><use transform="matrix(0.05,0,0,0.05,48.900000000000006,0)" xlink:href="#aI"/><use transform="matrix(0.05,0,0,0.05,57.900000000000006,0)" xlink:href="#aK"/><use transform="matrix(0.05,0,0,0.05,62.900000000000006,0)" xlink:href="#aR"/><use transform="matrix(0.05,0,0,0.05,72.9,0)" xlink:href="#aT"/><use transform="matrix(0.05,0,0,0.05,78.85000000000001,0)" xlink:href="#aG"/><use transform="matrix(0.05,0,0,0.05,88.85000000000001,0)" xlink:href="#aH"/><use transform="matrix(0.05,0,0,0.05,98.85000000000001,0)" xlink:href="#aI"/><use transform="matrix(0.05,0,0,0.05,107.85000000000001,0)" xlink:href="#aJ"/><use transform="matrix(0.05,0,0,0.05,117.85000000000001,0)" xlink:href="#aK"/><use transform="matrix(0.05,0,0,0.05,122.85000000000001,0)" xlink:href="#aL"/><use transform="matrix(0.05,0,0,0.05,126.80000000000001,0)" xlink:href="#aH"/><use transform="matrix(0.05,0,0,0.05,136.8,0)" xlink:href="#aM"/></g><path fill="#333" d="M30 0v-248h187v28H63v79h144v27H63v87h162V0H30" id="bm"/><g id="C"><use transform="matrix(0.05,0,0,0.05,0,0)" xlink:href="#bm"/><use transform="matrix(0.05,0,0,0.05,12,0)" xlink:href="#aW"/><use transform="matrix(0.05,0,0,0.05,22,0)" xlink:href="#aL"/><use transform="matrix(0.05,0,0,0.05,25.950000000000003,0)" xlink:href="#aX"/><use transform="matrix(0.05,0,0,0.05,34.95,0)" xlink:href="#aH"/><use transform="matrix(0.05,0,0,0.05,44.95,0)" xlink:href="#aO"/><use transform="matrix(0.05,0,0,0.05,54.95,0)" xlink:href="#aR"/></g><path fill="#333" d="M30-248c118-7 216 8 213 122C240-48 200 0 122 0H30v-248zM63-27c89 8 146-16 146-99s-60-101-146-95v194" id="bn"/><g id="D"><use transform="matrix(0.05,0,0,0.05,0,0)" xlink:href="#aJ"/><use transform="matrix(0.05,0,0,0.05,10,0)" xlink:href="#aL"/><use transform="matrix(0.05,0,0,0.05,13.949999999999998,0)" xlink:href="#aT"/><use transform="matrix(0.05,0,0,0.05,19.9,0)" xlink:href="#bn"/><use transform="matrix(0.05,0,0,0.05,32.85,0)" xlink:href="#aJ"/><use transform="matrix(0.05,0,0,0.05,42.85,0)" xlink:href="#aK"/><use transform="matrix(0.05,0,0,0.05,47.85,0)" xlink:href="#aR"/><use transform="matrix(0.05,0,0,0.05,57.85,0)" xlink:href="#aP"/></g><g id="E"><use transform="matrix(0.05,0,0,0.05,0,0)" xlink:href="#aR"/><use transform="matrix(0.05,0,0,0.05,10,0)" xlink:href="#aW"/><use transform="matrix(0.05,0,0,0.05,20,0)" xlink:href="#aL"/><use transform="matrix(0.05,0,0,0.05,23.95,0)" xlink:href="#aX"/><use transform="matrix(0.05,0,0,0.05,32.95,0)" xlink:href="#aH"/><use transform="matrix(0.05,0,0,0.05,42.95,0)" xlink:href="#aO"/><use transform="matrix(0.05,0,0,0.05,52.95,0)" xlink:href="#aR"/><use transform="matrix(0.05,0,0,0.05,62.95,0)" xlink:href="#aP"/></g><g id="F"><use transform="matrix(0.05,0,0,0.05,0,0)" xlink:href="#aI"/><use transform="matrix(0.05,0,0,0.05,9,0)" xlink:href="#bl"/><use transform="matrix(0.05,0,0,0.05,19,0)" xlink:href="#aJ"/><use transform="matrix(0.05,0,0,0.05,29,0)" xlink:href="#aT"/><use transform="matrix(0.05,0,0,0.05,34.95,0)" xlink:href="#aJ"/><use transform="matrix(0.05,0,0,0.05,44.95,0)" xlink:href="#aI"/><use transform="matrix(0.05,0,0,0.05,53.95,0)" xlink:href="#aK"/><use transform="matrix(0.05,0,0,0.05,58.95,0)" xlink:href="#aR"/><use transform="matrix(0.05,0,0,0.05,68.95,0)" xlink:href="#aT"/><use transform="matrix(0.05,0,0,0.05,74.9,0)" xlink:href="#aX"/><use transform="matrix(0.05,0,0,0.05,83.9,0)" xlink:href="#aP"/></g><path fill="#333" d="M108 0H70L1-190h34L89-25l56-165h34" id="bo"/><path fill="#333" d="M206 0h-36l-40-164L89 0H53L-1-190h32L70-26l43-164h34l41 164 42-164h31" id="bp"/><g id="G"><use transform="matrix(0.05,0,0,0.05,0,0)" xlink:href="#aH"/><use transform="matrix(0.05,0,0,0.05,10,0)" xlink:href="#bo"/><use transform="matrix(0.05,0,0,0.05,19,0)" xlink:href="#aR"/><use transform="matrix(0.05,0,0,0.05,29,0)" xlink:href="#aT"/><use transform="matrix(0.05,0,0,0.05,34.95,0)" xlink:href="#bo"/><use transform="matrix(0.05,0,0,0.05,43.95,0)" xlink:href="#aL"/><use transform="matrix(0.05,0,0,0.05,47.900000000000006,0)" xlink:href="#aR"/><use transform="matrix(0.05,0,0,0.05,57.900000000000006,0)" xlink:href="#bp"/><use transform="matrix(0.05,0,0,0.05,70.85000000000001,0)" xlink:href="#aP"/></g><path fill="#333" d="M30-248c87 1 191-15 191 75 0 78-77 80-158 76V0H30v-248zm33 125c57 0 124 11 124-50 0-59-68-47-124-48v98" id="bq"/><g id="H"><use transform="matrix(0.05,0,0,0.05,0,0)" xlink:href="#aX"/><use transform="matrix(0.05,0,0,0.05,9,0)" xlink:href="#aK"/><use transform="matrix(0.05,0,0,0.05,14,0)" xlink:href="#aL"/><use transform="matrix(0.05,0,0,0.05,17.95,0)" xlink:href="#bb"/><use transform="matrix(0.05,0,0,0.05,21.9,0)" xlink:href="#bb"/><use transform="matrix(0.05,0,0,0.05,25.849999999999994,0)" xlink:href="#bq"/><use transform="matrix(0.05,0,0,0.05,37.849999999999994,0)" xlink:href="#aJ"/><use transform="matrix(0.05,0,0,0.05,47.849999999999994,0)" xlink:href="#aK"/><use transform="matrix(0.05,0,0,0.05,52.849999999999994,0)" xlink:href="#bl"/><use transform="matrix(0.05,0,0,0.05,62.849999999999994,0)" xlink:href="#aP"/></g><g id="I"><use transform="matrix(0.05,0,0,0.05,0,0)" xlink:href="#bm"/><use transform="matrix(0.05,0,0,0.05,12,0)" xlink:href="#aW"/><use transform="matrix(0.05,0,0,0.05,22,0)" xlink:href="#aL"/><use transform="matrix(0.05,0,0,0.05,25.950000000000003,0)" xlink:href="#aX"/><use transform="matrix(0.05,0,0,0.05,34.95,0)" xlink:href="#aH"/><use transform="matrix(0.05,0,0,0.05,44.95,0)" xlink:href="#aO"/><use transform="matrix(0.05,0,0,0.05,54.95,0)" xlink:href="#aR"/><use transform="matrix(0.05,0,0,0.05,64.95,0)" xlink:href="#bc"/><use transform="matrix(0.05,0,0,0.05,69.95,0)" xlink:href="#bd"/><use transform="matrix(0.05,0,0,0.05,74.95,0)" xlink:href="#aT"/><use transform="matrix(0.05,0,0,0.05,80.9,0)" xlink:href="#aH"/><use transform="matrix(0.05,0,0,0.05,90.9,0)" xlink:href="#aQ"/><use transform="matrix(0.05,0,0,0.05,105.85000000000001,0)" xlink:href="#be"/><use transform="matrix(0.05,0,0,0.05,114.85000000000001,0)" xlink:href="#aX"/><use transform="matrix(0.05,0,0,0.05,123.85000000000001,0)" xlink:href="#aH"/><use transform="matrix(0.05,0,0,0.05,133.85000000000002,0)" xlink:href="#aM"/><use transform="matrix(0.05,0,0,0.05,143.85000000000002,0)" xlink:href="#bf"/><use transform="matrix(0.05,0,0,0.05,149.8,0)" xlink:href="#bg"/><use transform="matrix(0.05,0,0,0.05,164.75,0)" xlink:href="#aJ"/><use transform="matrix(0.05,0,0,0.05,174.75,0)" xlink:href="#aW"/><use transform="matrix(0.05,0,0,0.05,184.75,0)" xlink:href="#aY"/><use transform="matrix(0.05,0,0,0.05,195.25,0)" xlink:href="#aS"/><use transform="matrix(0.05,0,0,0.05,207.25,0)" xlink:href="#aK"/><use transform="matrix(0.05,0,0,0.05,212.25,0)" xlink:href="#aT"/><use transform="matrix(0.05,0,0,0.05,218.19999999999996,0)" xlink:href="#aL"/><use transform="matrix(0.05,0,0,0.05,222.14999999999998,0)" xlink:href="#aM"/><use transform="matrix(0.05,0,0,0.05,232.14999999999998,0)" xlink:href="#aU"/><use transform="matrix(0.05,0,0,0.05,242.14999999999998,0)" xlink:href="#bh"/></g><g id="J"><use transform="matrix(0.05,0,0,0.05,0,0)" xlink:href="#bi"/><use transform="matrix(0.05,0,0,0.05,3.95,0)" xlink:href="#aX"/><use transform="matrix(0.05,0,0,0.05,12.949999999999998,0)" xlink:href="#aH"/><use transform="matrix(0.05,0,0,0.05,22.95,0)" xlink:href="#aM"/><use transform="matrix(0.05,0,0,0.05,32.95,0)" xlink:href="#bh"/></g><path fill="#333" d="M115-194c53 0 69 39 70 98 0 66-23 100-70 100C84 3 66-7 56-30L54 0H23l1-261h32v101c10-23 28-34 59-34zm-8 174c40 0 45-34 45-75 0-40-5-75-45-74-42 0-51 32-51 76 0 43 10 73 51 73" id="br"/><g id="K"><use transform="matrix(0.05,0,0,0.05,0,0)" xlink:href="#aK"/><use transform="matrix(0.05,0,0,0.05,5,0)" xlink:href="#aQ"/><use transform="matrix(0.05,0,0,0.05,19.950000000000003,0)" xlink:href="#aO"/><use transform="matrix(0.05,0,0,0.05,29.950000000000003,0)" xlink:href="#br"/><use transform="matrix(0.05,0,0,0.05,39.95,0)" xlink:href="#be"/><use transform="matrix(0.05,0,0,0.05,48.95,0)" xlink:href="#aX"/><use transform="matrix(0.05,0,0,0.05,57.95,0)" xlink:href="#aH"/><use transform="matrix(0.05,0,0,0.05,67.95,0)" xlink:href="#aM"/><use transform="matrix(0.05,0,0,0.05,77.95,0)" xlink:href="#bj"/><use transform="matrix(0.05,0,0,0.05,83.9,0)" xlink:href="#aP"/></g><g id="L"><use transform="matrix(0.05,0,0,0.05,0,0)" xlink:href="#bm"/><use transform="matrix(0.05,0,0,0.05,12,0)" xlink:href="#aW"/><use transform="matrix(0.05,0,0,0.05,22,0)" xlink:href="#aL"/><use transform="matrix(0.05,0,0,0.05,25.950000000000003,0)" xlink:href="#aX"/><use transform="matrix(0.05,0,0,0.05,34.95,0)" xlink:href="#aH"/><use transform="matrix(0.05,0,0,0.05,44.95,0)" xlink:href="#aO"/><use transform="matrix(0.05,0,0,0.05,54.95,0)" xlink:href="#aR"/></g><path fill="#333" d="M233-177c-1 41-23 64-60 70L243 0h-38l-65-103H63V0H30v-248c88 3 205-21 203 71zM63-129c60-2 137 13 137-47 0-61-80-42-137-45v92" id="bs"/><path fill="#333" d="M143 0L79-87 56-68V0H24v-261h32v163l83-92h37l-77 82L181 0h-38" id="bt"/><path fill="#333" d="M205 0l-28-72H64L36 0H1l101-248h38L239 0h-34zm-38-99l-47-123c-12 45-31 82-46 123h93" id="bu"/><g id="M"><use transform="matrix(0.05,0,0,0.05,0,0)" xlink:href="#bs"/><use transform="matrix(0.05,0,0,0.05,12.950000000000001,0)" xlink:href="#aL"/><use transform="matrix(0.05,0,0,0.05,16.900000000000002,0)" xlink:href="#aI"/><use transform="matrix(0.05,0,0,0.05,25.900000000000002,0)" xlink:href="#bt"/><use transform="matrix(0.05,0,0,0.05,34.900000000000006,0)" xlink:href="#bu"/><use transform="matrix(0.05,0,0,0.05,46.900000000000006,0)" xlink:href="#aM"/><use transform="matrix(0.05,0,0,0.05,56.900000000000006,0)" xlink:href="#aO"/><use transform="matrix(0.05,0,0,0.05,66.9,0)" xlink:href="#bg"/><use transform="matrix(0.05,0,0,0.05,81.85000000000001,0)" xlink:href="#aH"/><use transform="matrix(0.05,0,0,0.05,91.85000000000001,0)" xlink:href="#aT"/><use transform="matrix(0.05,0,0,0.05,97.80000000000001,0)" xlink:href="#aK"/><use transform="matrix(0.05,0,0,0.05,102.80000000000001,0)" xlink:href="#aV"/><use transform="matrix(0.05,0,0,0.05,111.80000000000001,0)" xlink:href="#aS"/><use transform="matrix(0.05,0,0,0.05,123.80000000000001,0)" xlink:href="#aR"/><use transform="matrix(0.05,0,0,0.05,133.8,0)" xlink:href="#aT"/><use transform="matrix(0.05,0,0,0.05,139.75,0)" xlink:href="#bo"/><use transform="matrix(0.05,0,0,0.05,148.75,0)" xlink:href="#aL"/><use transform="matrix(0.05,0,0,0.05,152.7,0)" xlink:href="#aI"/><use transform="matrix(0.05,0,0,0.05,161.7,0)" xlink:href="#aR"/></g><path fill="#333" d="M16-82v-28h88v28H16" id="bv"/><use transform="matrix(0.05,0,0,0.05,0,0)" xlink:href="#bv" id="N"/><path fill="#333" d="M232-93c-1 65-40 97-104 97C67 4 28-28 28-90v-158h33c8 89-33 224 67 224 102 0 64-133 71-224h33v155" id="bw"/><g id="O"><use transform="matrix(0.05,0,0,0.05,0,0)" xlink:href="#br"/><use transform="matrix(0.05,0,0,0.05,10,0)" xlink:href="#aJ"/><use transform="matrix(0.05,0,0,0.05,20,0)" xlink:href="#aX"/><use transform="matrix(0.05,0,0,0.05,29,0)" xlink:href="#aR"/><use transform="matrix(0.05,0,0,0.05,39,0)" xlink:href="#bw"/><use transform="matrix(0.05,0,0,0.05,51.95,0)" xlink:href="#aT"/><use transform="matrix(0.05,0,0,0.05,57.900000000000006,0)" xlink:href="#bb"/><path fill="#333" d="M-.9 1.25h63.65v1.32H-.9z"/><use transform="matrix(0.05,0,0,0.05,61.85,0)" xlink:href="#aP"/></g><g id="P"><use transform="matrix(0.05,0,0,0.05,0,0)" xlink:href="#aS"/><use transform="matrix(0.05,0,0,0.05,12,0)" xlink:href="#aK"/><use transform="matrix(0.05,0,0,0.05,17,0)" xlink:href="#aT"/><use transform="matrix(0.05,0,0,0.05,22.95,0)" xlink:href="#aL"/><use transform="matrix(0.05,0,0,0.05,26.899999999999995,0)" xlink:href="#aM"/><use transform="matrix(0.05,0,0,0.05,36.9,0)" xlink:href="#aU"/></g><path fill="#333" d="M18-150v-26h174v26H18zm0 90v-26h174v26H18" id="bx"/><use transform="matrix(0.05,0,0,0.05,0,0)" xlink:href="#bx" id="Q"/><path fill="#333" d="M47-170H22l-4-78h33" id="by"/><g id="R"><use transform="matrix(0.05,0,0,0.05,0,0)" xlink:href="#by"/><use transform="matrix(0.05,0,0,0.05,3.4000000000000004,0)" xlink:href="#aT"/><use transform="matrix(0.05,0,0,0.05,9.350000000000001,0)" xlink:href="#aL"/><use transform="matrix(0.05,0,0,0.05,13.3,0)" xlink:href="#aI"/><use transform="matrix(0.05,0,0,0.05,22.3,0)" xlink:href="#bt"/><use transform="matrix(0.05,0,0,0.05,31.3,0)" xlink:href="#aJ"/><use transform="matrix(0.05,0,0,0.05,41.3,0)" xlink:href="#aM"/><use transform="matrix(0.05,0,0,0.05,51.29999999999999,0)" xlink:href="#aO"/><use transform="matrix(0.05,0,0,0.05,61.29999999999999,0)" xlink:href="#aQ"/><use transform="matrix(0.05,0,0,0.05,76.25,0)" xlink:href="#aH"/><use transform="matrix(0.05,0,0,0.05,86.25,0)" xlink:href="#aT"/><use transform="matrix(0.05,0,0,0.05,92.2,0)" xlink:href="#aK"/><use transform="matrix(0.05,0,0,0.05,97.2,0)" xlink:href="#aV"/><use transform="matrix(0.05,0,0,0.05,106.2,0)" xlink:href="#aJ"/><use transform="matrix(0.05,0,0,0.05,116.2,0)" xlink:href="#aW"/><use transform="matrix(0.05,0,0,0.05,126.2,0)" xlink:href="#aL"/><use transform="matrix(0.05,0,0,0.05,130.15,0)" xlink:href="#bc"/><use transform="matrix(0.05,0,0,0.05,135.15,0)" xlink:href="#aI"/><use transform="matrix(0.05,0,0,0.05,144.15,0)" xlink:href="#aH"/><use transform="matrix(0.05,0,0,0.05,154.15,0)" xlink:href="#aQ"/><use transform="matrix(0.05,0,0,0.05,169.1,0)" xlink:href="#by"/></g><path fill="#333" d="M160-131c35 5 61 23 61 61C221 17 115-2 30 0v-248c76 3 177-17 177 60 0 33-19 50-47 57zm-97-11c50-1 110 9 110-42 0-47-63-36-110-37v79zm0 115c55-2 124 14 124-45 0-56-70-42-124-44v89" id="bz"/><g id="S"><use transform="matrix(0.05,0,0,0.05,0,0)" xlink:href="#aK"/><use transform="matrix(0.05,0,0,0.05,5,0)" xlink:href="#aQ"/><use transform="matrix(0.05,0,0,0.05,19.950000000000003,0)" xlink:href="#aO"/><use transform="matrix(0.05,0,0,0.05,29.950000000000003,0)" xlink:href="#br"/><use transform="matrix(0.05,0,0,0.05,39.95,0)" xlink:href="#bz"/><use transform="matrix(0.05,0,0,0.05,51.95,0)" xlink:href="#aJ"/><use transform="matrix(0.05,0,0,0.05,61.95,0)" xlink:href="#aX"/><use transform="matrix(0.05,0,0,0.05,70.95,0)" xlink:href="#aR"/><use transform="matrix(0.05,0,0,0.05,80.95,0)" xlink:href="#bw"/><use transform="matrix(0.05,0,0,0.05,93.9,0)" xlink:href="#aT"/><use transform="matrix(0.05,0,0,0.05,99.85000000000001,0)" xlink:href="#bb"/><path fill="#333" d="M-.9 1.25h105.6v1.32H-.9z"/><use transform="matrix(0.05,0,0,0.05,103.80000000000001,0)" xlink:href="#aP"/></g><g id="T"><use transform="matrix(0.05,0,0,0.05,0,0)" xlink:href="#by"/><use transform="matrix(0.05,0,0,0.05,3.4000000000000004,0)" xlink:href="#aJ"/><use transform="matrix(0.05,0,0,0.05,13.4,0)" xlink:href="#aW"/><use transform="matrix(0.05,0,0,0.05,23.4,0)" xlink:href="#aL"/><use transform="matrix(0.05,0,0,0.05,27.349999999999994,0)" xlink:href="#bc"/><use transform="matrix(0.05,0,0,0.05,32.349999999999994,0)" xlink:href="#aK"/><use transform="matrix(0.05,0,0,0.05,37.349999999999994,0)" xlink:href="#bl"/><use transform="matrix(0.05,0,0,0.05,47.349999999999994,0)" xlink:href="#aR"/><use transform="matrix(0.05,0,0,0.05,57.349999999999994,0)" xlink:href="#aQ"/><use transform="matrix(0.05,0,0,0.05,72.3,0)" xlink:href="#aH"/><use transform="matrix(0.05,0,0,0.05,82.3,0)" xlink:href="#bo"/><use transform="matrix(0.05,0,0,0.05,91.3,0)" xlink:href="#aL"/><use transform="matrix(0.05,0,0,0.05,95.25,0)" xlink:href="#aR"/><use transform="matrix(0.05,0,0,0.05,105.25,0)" xlink:href="#aO"/><use transform="matrix(0.05,0,0,0.05,115.25,0)" xlink:href="#br"/><use transform="matrix(0.05,0,0,0.05,125.25,0)" xlink:href="#bc"/><use transform="matrix(0.05,0,0,0.05,130.25,0)" xlink:href="#aH"/><use transform="matrix(0.05,0,0,0.05,140.25,0)" xlink:href="#aT"/><use transform="matrix(0.05,0,0,0.05,146.2,0)" xlink:href="#aU"/><use transform="matrix(0.05,0,0,0.05,156.2,0)" xlink:href="#by"/></g><use transform="matrix(0.05,0,0,0.05,0,0)" xlink:href="#aN" id="U"/><path fill="#333" d="M39-94c74 12-11 154 75 146v23c-44 4-70-10-70-52C44-23 55-84 6-82v-22c81 4-7-162 84-157h24v23c-82-15-2 131-75 144" id="bA"/><g id="V"><use transform="matrix(0.05,0,0,0.05,0,0)" xlink:href="#aU"/><use transform="matrix(0.05,0,0,0.05,10,0)" xlink:href="#aR"/><use transform="matrix(0.05,0,0,0.05,20,0)" xlink:href="#aK"/><use transform="matrix(0.05,0,0,0.05,25,0)" xlink:href="#bk"/><use transform="matrix(0.05,0,0,0.05,37.95,0)" xlink:href="#bl"/><use transform="matrix(0.05,0,0,0.05,47.95,0)" xlink:href="#aJ"/><use transform="matrix(0.05,0,0,0.05,57.95,0)" xlink:href="#aT"/><use transform="matrix(0.05,0,0,0.05,63.900000000000006,0)" xlink:href="#aJ"/><use transform="matrix(0.05,0,0,0.05,73.9,0)" xlink:href="#aI"/><use transform="matrix(0.05,0,0,0.05,82.9,0)" xlink:href="#aK"/><use transform="matrix(0.05,0,0,0.05,87.9,0)" xlink:href="#aR"/><use transform="matrix(0.05,0,0,0.05,97.9,0)" xlink:href="#aT"/><use transform="matrix(0.05,0,0,0.05,103.85000000000001,0)" xlink:href="#aX"/><path fill="#333" d="M-.9 1.25h114.65v1.32H-.9z"/><use transform="matrix(0.05,0,0,0.05,112.85000000000001,0)" xlink:href="#bf"/><use transform="matrix(0.05,0,0,0.05,118.80000000000001,0)" xlink:href="#bA"/><use transform="matrix(0.05,0,0,0.05,124.80000000000001,0)" xlink:href="#aS"/><use transform="matrix(0.05,0,0,0.05,136.8,0)" xlink:href="#aK"/><use transform="matrix(0.05,0,0,0.05,141.8,0)" xlink:href="#aT"/><use transform="matrix(0.05,0,0,0.05,147.75,0)" xlink:href="#aL"/><use transform="matrix(0.05,0,0,0.05,151.7,0)" xlink:href="#aM"/><use transform="matrix(0.05,0,0,0.05,161.7,0)" xlink:href="#aU"/></g><g id="W"><use transform="matrix(0.05,0,0,0.05,0,0)" xlink:href="#aM"/><use transform="matrix(0.05,0,0,0.05,10,0)" xlink:href="#aJ"/><use transform="matrix(0.05,0,0,0.05,20,0)" xlink:href="#aQ"/><use transform="matrix(0.05,0,0,0.05,34.95,0)" xlink:href="#aR"/></g><g id="X"><use transform="matrix(0.05,0,0,0.05,0,0)" xlink:href="#by"/><use transform="matrix(0.05,0,0,0.05,3.4000000000000004,0)" xlink:href="#by"/><use transform="matrix(0.05,0,0,0.05,6.800000000000001,0)" xlink:href="#bh"/></g><g id="Y"><use transform="matrix(0.05,0,0,0.05,0,0)" xlink:href="#aL"/><use transform="matrix(0.05,0,0,0.05,3.95,0)" xlink:href="#aM"/><use transform="matrix(0.05,0,0,0.05,13.949999999999998,0)" xlink:href="#aK"/></g><g id="Z"><use transform="matrix(0.05,0,0,0.05,0,0)" xlink:href="#aW"/><use transform="matrix(0.05,0,0,0.05,10,0)" xlink:href="#aJ"/><use transform="matrix(0.05,0,0,0.05,20,0)" xlink:href="#aU"/><use transform="matrix(0.05,0,0,0.05,30,0)" xlink:href="#aR"/></g><path fill="#333" d="M27 0v-27h64v-190l-56 39v-29l58-41h29v221h61V0H27" id="bB"/><path fill="#333" d="M76-40C78 24 84 88 6 75V52C86 64 9-79 80-94c-40-6-34-59-34-106 1-29-11-41-40-38v-23c44-4 70 10 70 52 0 47-12 108 38 105v22c-26 1-39 14-38 42" id="bC"/><g id="aa"><use transform="matrix(0.05,0,0,0.05,0,0)" xlink:href="#bB"/><use transform="matrix(0.05,0,0,0.05,10,0)" xlink:href="#bC"/><use transform="matrix(0.05,0,0,0.05,16,0)" xlink:href="#bj"/></g><use transform="matrix(0.05,0,0,0.05,0,0)" xlink:href="#aP" id="ab"/><path fill="#333" d="M63-220v92h138v28H63V0H30v-248h175v28H63" id="bD"/><g id="ac"><use transform="matrix(0.05,0,0,0.05,0,0)" xlink:href="#bD"/><use transform="matrix(0.05,0,0,0.05,10.950000000000001,0)" xlink:href="#ba"/><use transform="matrix(0.05,0,0,0.05,20.950000000000003,0)" xlink:href="#aK"/><use transform="matrix(0.05,0,0,0.05,25.950000000000003,0)" xlink:href="#ba"/><use transform="matrix(0.05,0,0,0.05,35.95,0)" xlink:href="#aT"/><use transform="matrix(0.05,0,0,0.05,41.900000000000006,0)" xlink:href="#aR"/><use transform="matrix(0.05,0,0,0.05,51.900000000000006,0)" xlink:href="#aY"/><use transform="matrix(0.05,0,0,0.05,62.400000000000006,0)" xlink:href="#aG"/><use transform="matrix(0.05,0,0,0.05,72.4,0)" xlink:href="#aL"/><use transform="matrix(0.05,0,0,0.05,76.35000000000001,0)" xlink:href="#aX"/><use transform="matrix(0.05,0,0,0.05,85.35000000000001,0)" xlink:href="#aK"/><use transform="matrix(0.05,0,0,0.05,90.35000000000001,0)" xlink:href="#aY"/><use transform="matrix(0.05,0,0,0.05,100.85000000000001,0)" xlink:href="#bk"/><use transform="matrix(0.05,0,0,0.05,113.80000000000001,0)" xlink:href="#bl"/><use transform="matrix(0.05,0,0,0.05,123.80000000000001,0)" xlink:href="#aJ"/><use transform="matrix(0.05,0,0,0.05,133.8,0)" xlink:href="#aT"/><use transform="matrix(0.05,0,0,0.05,139.75,0)" xlink:href="#aJ"/><use transform="matrix(0.05,0,0,0.05,149.75,0)" xlink:href="#aI"/><use transform="matrix(0.05,0,0,0.05,158.75,0)" xlink:href="#aK"/><use transform="matrix(0.05,0,0,0.05,163.75,0)" xlink:href="#aR"/><use transform="matrix(0.05,0,0,0.05,173.75,0)" xlink:href="#aT"/><use transform="matrix(0.05,0,0,0.05,179.7,0)" xlink:href="#aZ"/><use transform="matrix(0.05,0,0,0.05,190.2,0)" xlink:href="#aZ"/></g><path fill="#333" d="M33 0v-248h34V0H33" id="bE"/><g id="ae"><use transform="matrix(0.05,0,0,0.05,0,0)" xlink:href="#aU"/><use transform="matrix(0.05,0,0,0.05,10,0)" xlink:href="#aR"/><use transform="matrix(0.05,0,0,0.05,20,0)" xlink:href="#aK"/><use transform="matrix(0.05,0,0,0.05,25,0)" xlink:href="#bk"/><use transform="matrix(0.05,0,0,0.05,37.95,0)" xlink:href="#bl"/><use transform="matrix(0.05,0,0,0.05,47.95,0)" xlink:href="#aJ"/><use transform="matrix(0.05,0,0,0.05,57.95,0)" xlink:href="#aT"/><use transform="matrix(0.05,0,0,0.05,63.900000000000006,0)" xlink:href="#aJ"/><use transform="matrix(0.05,0,0,0.05,73.9,0)" xlink:href="#aI"/><use transform="matrix(0.05,0,0,0.05,82.9,0)" xlink:href="#aK"/><use transform="matrix(0.05,0,0,0.05,87.9,0)" xlink:href="#aR"/><use transform="matrix(0.05,0,0,0.05,97.9,0)" xlink:href="#aT"/><use transform="matrix(0.05,0,0,0.05,103.85000000000001,0)" xlink:href="#aX"/><use transform="matrix(0.05,0,0,0.05,112.85000000000001,0)" xlink:href="#bz"/><use transform="matrix(0.05,0,0,0.05,124.85000000000001,0)" xlink:href="#aV"/><use transform="matrix(0.05,0,0,0.05,133.85000000000002,0)" xlink:href="#bE"/><use transform="matrix(0.05,0,0,0.05,138.85000000000002,0)" xlink:href="#aO"/><use transform="matrix(0.05,0,0,0.05,148.85000000000002,0)" xlink:href="#aX"/><path fill="#333" d="M-.9 1.25h159.65v1.32H-.9z"/><use transform="matrix(0.05,0,0,0.05,157.85000000000002,0)" xlink:href="#bf"/><use transform="matrix(0.05,0,0,0.05,163.8,0)" xlink:href="#aG"/><use transform="matrix(0.05,0,0,0.05,173.8,0)" xlink:href="#aL"/><use transform="matrix(0.05,0,0,0.05,177.75,0)" xlink:href="#aX"/><use transform="matrix(0.05,0,0,0.05,186.75,0)" xlink:href="#aK"/><use transform="matrix(0.05,0,0,0.05,191.75,0)" xlink:href="#aY"/><use transform="matrix(0.05,0,0,0.05,202.25,0)" xlink:href="#aL"/><use transform="matrix(0.05,0,0,0.05,206.19999999999996,0)" xlink:href="#aM"/><use transform="matrix(0.05,0,0,0.05,216.19999999999996,0)" xlink:href="#aK"/><use transform="matrix(0.05,0,0,0.05,221.19999999999996,0)" xlink:href="#aZ"/></g><g id="af"><use transform="matrix(0.05,0,0,0.05,0,0)" xlink:href="#aL"/><use transform="matrix(0.05,0,0,0.05,3.95,0)" xlink:href="#aO"/><use transform="matrix(0.05,0,0,0.05,13.949999999999998,0)" xlink:href="#aX"/><use transform="matrix(0.05,0,0,0.05,22.95,0)" xlink:href="#bj"/><use transform="matrix(0.05,0,0,0.05,28.899999999999995,0)" xlink:href="#aP"/></g><g id="ag"><use transform="matrix(0.05,0,0,0.05,0,0)" xlink:href="#bD"/><use transform="matrix(0.05,0,0,0.05,10.950000000000001,0)" xlink:href="#ba"/><use transform="matrix(0.05,0,0,0.05,20.950000000000003,0)" xlink:href="#aK"/><use transform="matrix(0.05,0,0,0.05,25.950000000000003,0)" xlink:href="#ba"/><use transform="matrix(0.05,0,0,0.05,35.95,0)" xlink:href="#aT"/><use transform="matrix(0.05,0,0,0.05,41.900000000000006,0)" xlink:href="#aR"/><use transform="matrix(0.05,0,0,0.05,51.900000000000006,0)" xlink:href="#aY"/><use transform="matrix(0.05,0,0,0.05,62.400000000000006,0)" xlink:href="#aG"/><use transform="matrix(0.05,0,0,0.05,72.4,0)" xlink:href="#aL"/><use transform="matrix(0.05,0,0,0.05,76.35000000000001,0)" xlink:href="#aX"/><use transform="matrix(0.05,0,0,0.05,85.35000000000001,0)" xlink:href="#aK"/><use transform="matrix(0.05,0,0,0.05,90.35000000000001,0)" xlink:href="#aY"/><use transform="matrix(0.05,0,0,0.05,100.85000000000001,0)" xlink:href="#bk"/><use transform="matrix(0.05,0,0,0.05,113.80000000000001,0)" xlink:href="#bl"/><use transform="matrix(0.05,0,0,0.05,123.80000000000001,0)" xlink:href="#aJ"/><use transform="matrix(0.05,0,0,0.05,133.8,0)" xlink:href="#aT"/><use transform="matrix(0.05,0,0,0.05,139.75,0)" xlink:href="#aJ"/><use transform="matrix(0.05,0,0,0.05,149.75,0)" xlink:href="#aI"/><use transform="matrix(0.05,0,0,0.05,158.75,0)" xlink:href="#aK"/><use transform="matrix(0.05,0,0,0.05,163.75,0)" xlink:href="#aR"/><use transform="matrix(0.05,0,0,0.05,173.75,0)" xlink:href="#aT"/><use transform="matrix(0.05,0,0,0.05,179.7,0)" xlink:href="#aZ"/><use transform="matrix(0.05,0,0,0.05,190.2,0)" xlink:href="#aZ"/></g><use transform="matrix(0.05,0,0,0.05,0,0)" xlink:href="#aN" id="ah"/><g id="ai"><use transform="matrix(0.05,0,0,0.05,0,0)" xlink:href="#aU"/><use transform="matrix(0.05,0,0,0.05,10,0)" xlink:href="#aR"/><use transform="matrix(0.05,0,0,0.05,20,0)" xlink:href="#aK"/><use transform="matrix(0.05,0,0,0.05,25,0)" xlink:href="#bm"/><use transform="matrix(0.05,0,0,0.05,37,0)" xlink:href="#aW"/><use transform="matrix(0.05,0,0,0.05,47,0)" xlink:href="#aL"/><use transform="matrix(0.05,0,0,0.05,50.95,0)" xlink:href="#aX"/><use transform="matrix(0.05,0,0,0.05,59.95,0)" xlink:href="#aH"/><use transform="matrix(0.05,0,0,0.05,69.95,0)" xlink:href="#aO"/><use transform="matrix(0.05,0,0,0.05,79.95,0)" xlink:href="#aR"/><use transform="matrix(0.05,0,0,0.05,89.95,0)" xlink:href="#aX"/><path fill="#333" d="M-.9 1.25H99.85v1.32H-.9z"/><use transform="matrix(0.05,0,0,0.05,98.95,0)" xlink:href="#bf"/><use transform="matrix(0.05,0,0,0.05,104.9,0)" xlink:href="#bA"/><use transform="matrix(0.05,0,0,0.05,110.9,0)" xlink:href="#aS"/><use transform="matrix(0.05,0,0,0.05,122.9,0)" xlink:href="#aK"/><use transform="matrix(0.05,0,0,0.05,127.9,0)" xlink:href="#aT"/><use transform="matrix(0.05,0,0,0.05,133.85,0)" xlink:href="#aL"/><use transform="matrix(0.05,0,0,0.05,137.79999999999998,0)" xlink:href="#aM"/><use transform="matrix(0.05,0,0,0.05,147.79999999999998,0)" xlink:href="#aU"/></g><g id="aj"><use transform="matrix(0.05,0,0,0.05,0,0)" xlink:href="#by"/><use transform="matrix(0.05,0,0,0.05,3.4000000000000004,0)" xlink:href="#by"/><use transform="matrix(0.05,0,0,0.05,6.800000000000001,0)" xlink:href="#bh"/></g><path fill="#333" d="M190 0L58-211 59 0H30v-248h39L202-35l-2-213h31V0h-41" id="bF"/><g id="al"><use transform="matrix(0.05,0,0,0.05,0,0)" xlink:href="#aX"/><use transform="matrix(0.05,0,0,0.05,9,0)" xlink:href="#aR"/><use transform="matrix(0.05,0,0,0.05,19,0)" xlink:href="#aJ"/><use transform="matrix(0.05,0,0,0.05,29,0)" xlink:href="#aX"/><use transform="matrix(0.05,0,0,0.05,38,0)" xlink:href="#aH"/><use transform="matrix(0.05,0,0,0.05,48,0)" xlink:href="#aM"/><use transform="matrix(0.05,0,0,0.05,58,0)" xlink:href="#bF"/><use transform="matrix(0.05,0,0,0.05,70.95,0)" xlink:href="#ba"/><use transform="matrix(0.05,0,0,0.05,80.95,0)" xlink:href="#aQ"/><use transform="matrix(0.05,0,0,0.05,95.9,0)" xlink:href="#br"/><use transform="matrix(0.05,0,0,0.05,105.9,0)" xlink:href="#aR"/><use transform="matrix(0.05,0,0,0.05,115.9,0)" xlink:href="#aT"/></g><g id="am"><use transform="matrix(0.05,0,0,0.05,0,0)" xlink:href="#bB"/><use transform="matrix(0.05,0,0,0.05,10,0)" xlink:href="#bh"/></g><g id="an"><use transform="matrix(0.05,0,0,0.05,0,0)" xlink:href="#aS"/><use transform="matrix(0.05,0,0,0.05,12,0)" xlink:href="#aK"/><use transform="matrix(0.05,0,0,0.05,17,0)" xlink:href="#aT"/><use transform="matrix(0.05,0,0,0.05,22.95,0)" xlink:href="#aL"/><use transform="matrix(0.05,0,0,0.05,26.899999999999995,0)" xlink:href="#aM"/><use transform="matrix(0.05,0,0,0.05,36.9,0)" xlink:href="#aU"/></g><g id="ao"><use transform="matrix(0.05,0,0,0.05,0,0)" xlink:href="#aR"/><use transform="matrix(0.05,0,0,0.05,10,0)" xlink:href="#aW"/><use transform="matrix(0.05,0,0,0.05,20,0)" xlink:href="#aL"/><use transform="matrix(0.05,0,0,0.05,23.95,0)" xlink:href="#aX"/><use transform="matrix(0.05,0,0,0.05,32.95,0)" xlink:href="#aH"/><use transform="matrix(0.05,0,0,0.05,42.95,0)" xlink:href="#aO"/><use transform="matrix(0.05,0,0,0.05,52.95,0)" xlink:href="#aR"/></g><path fill="#333" d="M101-251c68 0 85 55 85 127S166 4 100 4C33 4 14-52 14-124c0-73 17-127 87-127zm-1 229c47 0 54-49 54-102s-4-102-53-102c-51 0-55 48-55 102 0 53 5 102 54 102" id="bG"/><g id="ap"><use transform="matrix(0.05,0,0,0.05,0,0)" xlink:href="#by"/><use transform="matrix(0.05,0,0,0.05,3.4000000000000004,0)" xlink:href="#aS"/><use transform="matrix(0.05,0,0,0.05,15.4,0)" xlink:href="#bG"/><use transform="matrix(0.05,0,0,0.05,25.4,0)" xlink:href="#bB"/><use transform="matrix(0.05,0,0,0.05,35.4,0)" xlink:href="#by"/><use transform="matrix(0.05,0,0,0.05,38.8,0)" xlink:href="#bC"/><use transform="matrix(0.05,0,0,0.05,44.8,0)" xlink:href="#bj"/><use transform="matrix(0.05,0,0,0.05,50.75,0)" xlink:href="#aP"/></g><g id="aq"><use transform="matrix(0.05,0,0,0.05,0,0)" xlink:href="#bD"/><use transform="matrix(0.05,0,0,0.05,10.950000000000001,0)" xlink:href="#ba"/><use transform="matrix(0.05,0,0,0.05,20.950000000000003,0)" xlink:href="#aK"/><use transform="matrix(0.05,0,0,0.05,25.950000000000003,0)" xlink:href="#ba"/><use transform="matrix(0.05,0,0,0.05,35.95,0)" xlink:href="#aT"/><use transform="matrix(0.05,0,0,0.05,41.900000000000006,0)" xlink:href="#aR"/><use transform="matrix(0.05,0,0,0.05,51.900000000000006,0)" xlink:href="#aY"/><use transform="matrix(0.05,0,0,0.05,62.400000000000006,0)" xlink:href="#aG"/><use transform="matrix(0.05,0,0,0.05,72.4,0)" xlink:href="#aL"/><use transform="matrix(0.05,0,0,0.05,76.35000000000001,0)" xlink:href="#aX"/><use transform="matrix(0.05,0,0,0.05,85.35000000000001,0)" xlink:href="#aK"/><use transform="matrix(0.05,0,0,0.05,90.35000000000001,0)" xlink:href="#aY"/><use transform="matrix(0.05,0,0,0.05,100.85000000000001,0)" xlink:href="#bm"/><use transform="matrix(0.05,0,0,0.05,112.85000000000001,0)" xlink:href="#aW"/><use transform="matrix(0.05,0,0,0.05,122.85000000000001,0)" xlink:href="#aL"/><use transform="matrix(0.05,0,0,0.05,126.80000000000001,0)" xlink:href="#aX"/><use transform="matrix(0.05,0,0,0.05,135.8,0)" xlink:href="#aH"/><use transform="matrix(0.05,0,0,0.05,145.8,0)" xlink:href="#aO"/><use transform="matrix(0.05,0,0,0.05,155.8,0)" xlink:href="#aR"/><use transform="matrix(0.05,0,0,0.05,165.8,0)" xlink:href="#aZ"/><use transform="matrix(0.05,0,0,0.05,176.3,0)" xlink:href="#aZ"/></g><g id="ar"><use transform="matrix(0.05,0,0,0.05,0,0)" xlink:href="#aU"/><use transform="matrix(0.05,0,0,0.05,10,0)" xlink:href="#aR"/><use transform="matrix(0.05,0,0,0.05,20,0)" xlink:href="#aK"/><use transform="matrix(0.05,0,0,0.05,25,0)" xlink:href="#aG"/><use transform="matrix(0.05,0,0,0.05,35,0)" xlink:href="#aH"/><use transform="matrix(0.05,0,0,0.05,45,0)" xlink:href="#aI"/><use transform="matrix(0.05,0,0,0.05,54,0)" xlink:href="#aJ"/><use transform="matrix(0.05,0,0,0.05,64,0)" xlink:href="#aK"/><use transform="matrix(0.05,0,0,0.05,69,0)" xlink:href="#aL"/><use transform="matrix(0.05,0,0,0.05,72.95,0)" xlink:href="#aH"/><use transform="matrix(0.05,0,0,0.05,82.95,0)" xlink:href="#aM"/><use transform="matrix(0.05,0,0,0.05,92.95,0)" xlink:href="#aX"/><path fill="#333" d="M-.9 1.25h103.75v1.32H-.9z"/><use transform="matrix(0.05,0,0,0.05,101.95,0)" xlink:href="#bf"/><use transform="matrix(0.05,0,0,0.05,107.9,0)" xlink:href="#bA"/><use transform="matrix(0.05,0,0,0.05,113.9,0)" xlink:href="#aS"/><use transform="matrix(0.05,0,0,0.05,125.9,0)" xlink:href="#aK"/><use transform="matrix(0.05,0,0,0.05,130.9,0)" xlink:href="#aT"/><use transform="matrix(0.05,0,0,0.05,136.85,0)" xlink:href="#aL"/><use transform="matrix(0.05,0,0,0.05,140.79999999999998,0)" xlink:href="#aM"/><use transform="matrix(0.05,0,0,0.05,150.79999999999998,0)" xlink:href="#aU"/></g><g id="as"><use transform="matrix(0.05,0,0,0.05,0,0)" xlink:href="#by"/><use transform="matrix(0.05,0,0,0.05,3.4000000000000004,0)" xlink:href="#by"/><use transform="matrix(0.05,0,0,0.05,6.800000000000001,0)" xlink:href="#bh"/></g><g id="at"><use transform="matrix(0.05,0,0,0.05,0,0)" xlink:href="#aL"/><use transform="matrix(0.05,0,0,0.05,3.95,0)" xlink:href="#aM"/><use transform="matrix(0.05,0,0,0.05,13.949999999999998,0)" xlink:href="#aK"/></g><g id="au"><use transform="matrix(0.05,0,0,0.05,0,0)" xlink:href="#bB"/><use transform="matrix(0.05,0,0,0.05,10,0)" xlink:href="#bC"/><use transform="matrix(0.05,0,0,0.05,16,0)" xlink:href="#bj"/><use transform="matrix(0.05,0,0,0.05,21.95,0)" xlink:href="#aP"/></g><g id="av"><use transform="matrix(0.05,0,0,0.05,0,0)" xlink:href="#bD"/><use transform="matrix(0.05,0,0,0.05,10.950000000000001,0)" xlink:href="#ba"/><use transform="matrix(0.05,0,0,0.05,20.950000000000003,0)" xlink:href="#aK"/><use transform="matrix(0.05,0,0,0.05,25.950000000000003,0)" xlink:href="#ba"/><use transform="matrix(0.05,0,0,0.05,35.95,0)" xlink:href="#aT"/><use transform="matrix(0.05,0,0,0.05,41.900000000000006,0)" xlink:href="#aR"/><use transform="matrix(0.05,0,0,0.05,51.900000000000006,0)" xlink:href="#aY"/><use transform="matrix(0.05,0,0,0.05,62.400000000000006,0)" xlink:href="#aG"/><use transform="matrix(0.05,0,0,0.05,72.4,0)" xlink:href="#aL"/><use transform="matrix(0.05,0,0,0.05,76.35000000000001,0)" xlink:href="#aX"/><use transform="matrix(0.05,0,0,0.05,85.35000000000001,0)" xlink:href="#aK"/><use transform="matrix(0.05,0,0,0.05,90.35000000000001,0)" xlink:href="#aY"/><use transform="matrix(0.05,0,0,0.05,100.85000000000001,0)" xlink:href="#aG"/><use transform="matrix(0.05,0,0,0.05,110.85000000000001,0)" xlink:href="#aH"/><use transform="matrix(0.05,0,0,0.05,120.85000000000001,0)" xlink:href="#aI"/><use transform="matrix(0.05,0,0,0.05,129.85000000000002,0)" xlink:href="#aJ"/><use transform="matrix(0.05,0,0,0.05,139.85000000000002,0)" xlink:href="#aK"/><use transform="matrix(0.05,0,0,0.05,144.85000000000002,0)" xlink:href="#aL"/><use transform="matrix(0.05,0,0,0.05,148.8,0)" xlink:href="#aH"/><use transform="matrix(0.05,0,0,0.05,158.8,0)" xlink:href="#aM"/><use transform="matrix(0.05,0,0,0.05,168.8,0)" xlink:href="#aZ"/><use transform="matrix(0.05,0,0,0.05,179.3,0)" xlink:href="#aZ"/></g><g id="aw"><use transform="matrix(0.05,0,0,0.05,0,0)" xlink:href="#bd"/><use transform="matrix(0.05,0,0,0.05,5,0)" xlink:href="#aR"/><use transform="matrix(0.05,0,0,0.05,15,0)" xlink:href="#aK"/><use transform="matrix(0.05,0,0,0.05,20,0)" xlink:href="#aI"/><use transform="matrix(0.05,0,0,0.05,29,0)" xlink:href="#bl"/><use transform="matrix(0.05,0,0,0.05,39,0)" xlink:href="#aR"/><use transform="matrix(0.05,0,0,0.05,49,0)" xlink:href="#aT"/><path fill="#333" d="M-.9 1.25h56.75v1.32H-.9z"/><use transform="matrix(0.05,0,0,0.05,54.95,0)" xlink:href="#bf"/><use transform="matrix(0.05,0,0,0.05,60.900000000000006,0)" xlink:href="#aS"/><use transform="matrix(0.05,0,0,0.05,72.9,0)" xlink:href="#aK"/><use transform="matrix(0.05,0,0,0.05,77.9,0)" xlink:href="#aT"/><use transform="matrix(0.05,0,0,0.05,83.85000000000001,0)" xlink:href="#aL"/><use transform="matrix(0.05,0,0,0.05,87.80000000000001,0)" xlink:href="#aM"/><use transform="matrix(0.05,0,0,0.05,97.80000000000001,0)" xlink:href="#aU"/></g><g id="ax"><use transform="matrix(0.05,0,0,0.05,0,0)" xlink:href="#aR"/><use transform="matrix(0.05,0,0,0.05,10,0)" xlink:href="#aM"/><use transform="matrix(0.05,0,0,0.05,20,0)" xlink:href="#aO"/><use transform="matrix(0.05,0,0,0.05,30,0)" xlink:href="#aW"/><use transform="matrix(0.05,0,0,0.05,40,0)" xlink:href="#aH"/><use transform="matrix(0.05,0,0,0.05,50,0)" xlink:href="#aL"/><use transform="matrix(0.05,0,0,0.05,53.95,0)" xlink:href="#aM"/><use transform="matrix(0.05,0,0,0.05,63.95,0)" xlink:href="#aK"/><use transform="matrix(0.05,0,0,0.05,68.95,0)" xlink:href="#bh"/></g><g id="ay"><use transform="matrix(0.05,0,0,0.05,0,0)" xlink:href="#bA"/><use transform="matrix(0.05,0,0,0.05,6,0)" xlink:href="#aS"/><use transform="matrix(0.05,0,0,0.05,18,0)" xlink:href="#aK"/><use transform="matrix(0.05,0,0,0.05,23,0)" xlink:href="#aT"/><use transform="matrix(0.05,0,0,0.05,28.950000000000003,0)" xlink:href="#aL"/><use transform="matrix(0.05,0,0,0.05,32.9,0)" xlink:href="#aM"/><use transform="matrix(0.05,0,0,0.05,42.9,0)" xlink:href="#aU"/></g><g id="az"><use transform="matrix(0.05,0,0,0.05,0,0)" xlink:href="#by"/><use transform="matrix(0.05,0,0,0.05,3.4000000000000004,0)" xlink:href="#bB"/><use transform="matrix(0.05,0,0,0.05,13.4,0)" xlink:href="#by"/><use transform="matrix(0.05,0,0,0.05,16.8,0)" xlink:href="#bh"/></g><g id="aA"><use transform="matrix(0.05,0,0,0.05,0,0)" xlink:href="#by"/><use transform="matrix(0.05,0,0,0.05,3.4000000000000004,0)" xlink:href="#by"/><use transform="matrix(0.05,0,0,0.05,6.800000000000001,0)" xlink:href="#bC"/><use transform="matrix(0.05,0,0,0.05,12.8,0)" xlink:href="#bj"/><use transform="matrix(0.05,0,0,0.05,18.75,0)" xlink:href="#aP"/></g><g id="aB"><use transform="matrix(0.05,0,0,0.05,0,0)" xlink:href="#bD"/><use transform="matrix(0.05,0,0,0.05,10.950000000000001,0)" xlink:href="#ba"/><use transform="matrix(0.05,0,0,0.05,20.950000000000003,0)" xlink:href="#aK"/><use transform="matrix(0.05,0,0,0.05,25.950000000000003,0)" xlink:href="#ba"/><use transform="matrix(0.05,0,0,0.05,35.95,0)" xlink:href="#aT"/><use transform="matrix(0.05,0,0,0.05,41.900000000000006,0)" xlink:href="#aR"/></g><path fill="#333" d="M127-220V0H93v-220H8v-28h204v28h-85" id="bH"/><g id="aC"><use transform="matrix(0.05,0,0,0.05,0,0)" xlink:href="#bd"/><use transform="matrix(0.05,0,0,0.05,5,0)" xlink:href="#aR"/><use transform="matrix(0.05,0,0,0.05,15,0)" xlink:href="#aK"/><use transform="matrix(0.05,0,0,0.05,20,0)" xlink:href="#aI"/><use transform="matrix(0.05,0,0,0.05,29,0)" xlink:href="#bl"/><use transform="matrix(0.05,0,0,0.05,39,0)" xlink:href="#aR"/><use transform="matrix(0.05,0,0,0.05,49,0)" xlink:href="#aT"/><use transform="matrix(0.05,0,0,0.05,54.95,0)" xlink:href="#bH"/><use transform="matrix(0.05,0,0,0.05,65.9,0)" xlink:href="#aQ"/><use transform="matrix(0.05,0,0,0.05,80.85000000000001,0)" xlink:href="#aO"/><use transform="matrix(0.05,0,0,0.05,90.85000000000001,0)" xlink:href="#br"/><path fill="#333" d="M-.9 1.25h102.65v1.32H-.9z"/><use transform="matrix(0.05,0,0,0.05,100.85000000000001,0)" xlink:href="#bf"/><use transform="matrix(0.05,0,0,0.05,106.80000000000001,0)" xlink:href="#bA"/><use transform="matrix(0.05,0,0,0.05,112.80000000000001,0)" xlink:href="#aS"/><use transform="matrix(0.05,0,0,0.05,124.80000000000001,0)" xlink:href="#aK"/><use transform="matrix(0.05,0,0,0.05,129.8,0)" xlink:href="#aT"/><use transform="matrix(0.05,0,0,0.05,135.75,0)" xlink:href="#aL"/><use transform="matrix(0.05,0,0,0.05,139.7,0)" xlink:href="#aM"/><use transform="matrix(0.05,0,0,0.05,149.7,0)" xlink:href="#aU"/></g><g id="aD"><use transform="matrix(0.05,0,0,0.05,0,0)" xlink:href="#aX"/><use transform="matrix(0.05,0,0,0.05,9,0)" xlink:href="#aR"/><use transform="matrix(0.05,0,0,0.05,19,0)" xlink:href="#aJ"/><use transform="matrix(0.05,0,0,0.05,29,0)" xlink:href="#aX"/><use transform="matrix(0.05,0,0,0.05,38,0)" xlink:href="#aH"/><use transform="matrix(0.05,0,0,0.05,48,0)" xlink:href="#aM"/><use transform="matrix(0.05,0,0,0.05,58,0)" xlink:href="#bE"/><use transform="matrix(0.05,0,0,0.05,63,0)" xlink:href="#aO"/></g><g id="aE"><use transform="matrix(0.05,0,0,0.05,0,0)" xlink:href="#by"/><use transform="matrix(0.05,0,0,0.05,3.4000000000000004,0)" xlink:href="#bB"/><use transform="matrix(0.05,0,0,0.05,13.4,0)" xlink:href="#by"/><use transform="matrix(0.05,0,0,0.05,16.8,0)" xlink:href="#bC"/><use transform="matrix(0.05,0,0,0.05,22.8,0)" xlink:href="#bj"/><use transform="matrix(0.05,0,0,0.05,28.75,0)" xlink:href="#aP"/></g><g id="aF"><use transform="matrix(0.05,0,0,0.05,0,0)" xlink:href="#bD"/><use transform="matrix(0.05,0,0,0.05,10.950000000000001,0)" xlink:href="#ba"/><use transform="matrix(0.05,0,0,0.05,20.950000000000003,0)" xlink:href="#aK"/><use transform="matrix(0.05,0,0,0.05,25.950000000000003,0)" xlink:href="#ba"/><use transform="matrix(0.05,0,0,0.05,35.95,0)" xlink:href="#aT"/><use transform="matrix(0.05,0,0,0.05,41.900000000000006,0)" xlink:href="#aR"/></g></defs></g></svg>